<mxfile host="Electron" modified="2023-12-04T14:46:38.898Z" agent="Mozilla/5.0 (Windows NT 10.0; Win64; x64) AppleWebKit/537.36 (KHTML, like Gecko) draw.io/22.1.2 Chrome/114.0.5735.289 Electron/25.9.4 Safari/537.36" etag="kqNZvRaX83ym5EAXMcpl" version="22.1.2" type="device">
  <diagram name="第 1 页" id="ACzHl5suw42Y7YkVkp2H">
    <mxGraphModel dx="1418" dy="838" grid="1" gridSize="10" guides="1" tooltips="1" connect="1" arrows="1" fold="1" page="1" pageScale="1" pageWidth="4681" pageHeight="3300" math="0" shadow="0">
      <root>
        <mxCell id="0" />
        <mxCell id="1" parent="0" />
        <mxCell id="oroKq6XAzSo-qo-6zVX0-16" value="" style="endArrow=none;dashed=1;html=1;strokeWidth=4;rounded=0;endSize=6;dashPattern=8 8;jumpStyle=none;" parent="1" edge="1">
          <mxGeometry width="50" height="50" relative="1" as="geometry">
            <mxPoint x="1560" y="2240" as="sourcePoint" />
            <mxPoint x="1560" y="1080" as="targetPoint" />
          </mxGeometry>
        </mxCell>
        <mxCell id="OWdNk56Qyckdl0vmcLq8-265" style="edgeStyle=orthogonalEdgeStyle;rounded=0;orthogonalLoop=1;jettySize=auto;html=1;exitX=0.5;exitY=0;exitDx=0;exitDy=0;entryX=0.5;entryY=0;entryDx=0;entryDy=0;fillColor=#0050ef;strokeColor=#001DBC;" parent="1" source="wflJlrnDviMMXbUjv76Y-1" target="OWdNk56Qyckdl0vmcLq8-118" edge="1">
          <mxGeometry relative="1" as="geometry">
            <Array as="points">
              <mxPoint x="1920" y="40" />
              <mxPoint x="320" y="40" />
            </Array>
          </mxGeometry>
        </mxCell>
        <mxCell id="wflJlrnDviMMXbUjv76Y-1" value="LoginServer" style="rounded=0;whiteSpace=wrap;html=1;fillColor=#0050ef;fontColor=#ffffff;strokeColor=#001DBC;" parent="1" vertex="1">
          <mxGeometry x="1840" y="1120" width="160" height="80" as="geometry" />
        </mxCell>
        <mxCell id="OWdNk56Qyckdl0vmcLq8-280" style="edgeStyle=orthogonalEdgeStyle;rounded=0;orthogonalLoop=1;jettySize=auto;html=1;exitX=0;exitY=0.5;exitDx=0;exitDy=0;entryX=0.5;entryY=0;entryDx=0;entryDy=0;fillColor=#0050ef;strokeColor=#001DBC;" parent="1" source="wflJlrnDviMMXbUjv76Y-2" target="OWdNk56Qyckdl0vmcLq8-266" edge="1">
          <mxGeometry relative="1" as="geometry">
            <Array as="points">
              <mxPoint x="1800" y="1280" />
              <mxPoint x="1800" y="80" />
              <mxPoint x="2160" y="80" />
            </Array>
          </mxGeometry>
        </mxCell>
        <mxCell id="wflJlrnDviMMXbUjv76Y-2" value="GatewayServer" style="rounded=0;whiteSpace=wrap;html=1;fillColor=#0050ef;fontColor=#ffffff;strokeColor=#001DBC;" parent="1" vertex="1">
          <mxGeometry x="1840" y="1240" width="160" height="80" as="geometry" />
        </mxCell>
        <mxCell id="wflJlrnDviMMXbUjv76Y-3" value="GatewayServer" style="rounded=0;whiteSpace=wrap;html=1;fillColor=#0050ef;fontColor=#ffffff;strokeColor=#001DBC;" parent="1" vertex="1">
          <mxGeometry x="1840" y="1360" width="160" height="80" as="geometry" />
        </mxCell>
        <mxCell id="wflJlrnDviMMXbUjv76Y-4" value="GatewayServer" style="rounded=0;whiteSpace=wrap;html=1;fillColor=#0050ef;fontColor=#ffffff;strokeColor=#001DBC;" parent="1" vertex="1">
          <mxGeometry x="1840" y="1480" width="160" height="80" as="geometry" />
        </mxCell>
        <mxCell id="OWdNk56Qyckdl0vmcLq8-386" style="edgeStyle=orthogonalEdgeStyle;rounded=0;orthogonalLoop=1;jettySize=auto;html=1;exitX=1;exitY=0.5;exitDx=0;exitDy=0;entryX=0.5;entryY=0;entryDx=0;entryDy=0;fillColor=#0050ef;strokeColor=#001DBC;" parent="1" source="OWdNk56Qyckdl0vmcLq8-1" target="OWdNk56Qyckdl0vmcLq8-379" edge="1">
          <mxGeometry relative="1" as="geometry" />
        </mxCell>
        <mxCell id="oroKq6XAzSo-qo-6zVX0-14" style="edgeStyle=orthogonalEdgeStyle;rounded=0;orthogonalLoop=1;jettySize=auto;html=1;exitX=0.5;exitY=1;exitDx=0;exitDy=0;entryX=0.5;entryY=0;entryDx=0;entryDy=0;fillColor=#0050ef;strokeColor=#001DBC;" parent="1" source="OWdNk56Qyckdl0vmcLq8-2" target="oroKq6XAzSo-qo-6zVX0-1" edge="1">
          <mxGeometry relative="1" as="geometry">
            <Array as="points">
              <mxPoint x="2480" y="1700" />
              <mxPoint x="2000" y="1700" />
              <mxPoint x="2000" y="1960" />
              <mxPoint x="1880" y="1960" />
            </Array>
          </mxGeometry>
        </mxCell>
        <mxCell id="OWdNk56Qyckdl0vmcLq8-2" value="CenterServer" style="rounded=0;whiteSpace=wrap;html=1;fillColor=#0050ef;fontColor=#ffffff;strokeColor=#001DBC;" parent="1" vertex="1">
          <mxGeometry x="2400" y="1520" width="160" height="80" as="geometry" />
        </mxCell>
        <mxCell id="OWdNk56Qyckdl0vmcLq8-9" value="" style="endArrow=none;html=1;rounded=0;entryX=0;entryY=0.5;entryDx=0;entryDy=0;exitX=1;exitY=0.5;exitDx=0;exitDy=0;fillColor=#1ba1e2;strokeColor=#006EAF;" parent="1" source="OWdNk56Qyckdl0vmcLq8-69" target="OWdNk56Qyckdl0vmcLq8-1" edge="1">
          <mxGeometry width="50" height="50" relative="1" as="geometry">
            <mxPoint x="2190" y="1180" as="sourcePoint" />
            <mxPoint x="2240" y="1130" as="targetPoint" />
          </mxGeometry>
        </mxCell>
        <mxCell id="OWdNk56Qyckdl0vmcLq8-11" value="" style="endArrow=none;html=1;rounded=0;entryX=0;entryY=0.5;entryDx=0;entryDy=0;exitX=1;exitY=0.5;exitDx=0;exitDy=0;" parent="1" source="wflJlrnDviMMXbUjv76Y-2" target="OWdNk56Qyckdl0vmcLq8-2" edge="1">
          <mxGeometry width="50" height="50" relative="1" as="geometry">
            <mxPoint x="2160" y="1360" as="sourcePoint" />
            <mxPoint x="2210" y="1300" as="targetPoint" />
          </mxGeometry>
        </mxCell>
        <mxCell id="OWdNk56Qyckdl0vmcLq8-12" value="" style="endArrow=none;html=1;rounded=0;entryX=0;entryY=0.5;entryDx=0;entryDy=0;exitX=1;exitY=0.5;exitDx=0;exitDy=0;" parent="1" source="wflJlrnDviMMXbUjv76Y-3" target="OWdNk56Qyckdl0vmcLq8-2" edge="1">
          <mxGeometry width="50" height="50" relative="1" as="geometry">
            <mxPoint x="2160" y="1440" as="sourcePoint" />
            <mxPoint x="2310" y="1399.5" as="targetPoint" />
          </mxGeometry>
        </mxCell>
        <mxCell id="OWdNk56Qyckdl0vmcLq8-13" value="" style="endArrow=none;html=1;rounded=0;entryX=0;entryY=0.5;entryDx=0;entryDy=0;exitX=1;exitY=0.5;exitDx=0;exitDy=0;" parent="1" source="wflJlrnDviMMXbUjv76Y-4" target="OWdNk56Qyckdl0vmcLq8-2" edge="1">
          <mxGeometry width="50" height="50" relative="1" as="geometry">
            <mxPoint x="2160" y="1520" as="sourcePoint" />
            <mxPoint x="2340" y="1390" as="targetPoint" />
          </mxGeometry>
        </mxCell>
        <mxCell id="OWdNk56Qyckdl0vmcLq8-15" value="" style="endArrow=none;html=1;rounded=0;entryX=0;entryY=0.5;entryDx=0;entryDy=0;exitX=1;exitY=0.5;exitDx=0;exitDy=0;" parent="1" source="wflJlrnDviMMXbUjv76Y-1" target="OWdNk56Qyckdl0vmcLq8-2" edge="1">
          <mxGeometry width="50" height="50" relative="1" as="geometry">
            <mxPoint x="2240.0000000000005" y="1260" as="sourcePoint" />
            <mxPoint x="2350" y="1340" as="targetPoint" />
          </mxGeometry>
        </mxCell>
        <mxCell id="OWdNk56Qyckdl0vmcLq8-16" value="" style="endArrow=none;html=1;rounded=0;entryX=0;entryY=0.5;entryDx=0;entryDy=0;exitX=1;exitY=0.5;exitDx=0;exitDy=0;fillColor=#1ba1e2;strokeColor=#006EAF;" parent="1" source="OWdNk56Qyckdl0vmcLq8-71" target="OWdNk56Qyckdl0vmcLq8-1" edge="1">
          <mxGeometry width="50" height="50" relative="1" as="geometry">
            <mxPoint x="2300" y="1390" as="sourcePoint" />
            <mxPoint x="2350" y="1340" as="targetPoint" />
          </mxGeometry>
        </mxCell>
        <mxCell id="OWdNk56Qyckdl0vmcLq8-308" style="edgeStyle=orthogonalEdgeStyle;rounded=0;orthogonalLoop=1;jettySize=auto;html=1;exitX=0;exitY=0.5;exitDx=0;exitDy=0;entryX=0.5;entryY=0;entryDx=0;entryDy=0;fillColor=#0050ef;strokeColor=#001DBC;" parent="1" source="OWdNk56Qyckdl0vmcLq8-17" target="OWdNk56Qyckdl0vmcLq8-297" edge="1">
          <mxGeometry relative="1" as="geometry">
            <Array as="points">
              <mxPoint x="2400" y="1800" />
              <mxPoint x="2400" y="1920" />
              <mxPoint x="1320" y="1920" />
            </Array>
          </mxGeometry>
        </mxCell>
        <mxCell id="OWdNk56Qyckdl0vmcLq8-17" value="GameServer" style="rounded=0;whiteSpace=wrap;html=1;fillColor=#0050ef;fontColor=#ffffff;strokeColor=#001DBC;" parent="1" vertex="1">
          <mxGeometry x="2440" y="1760" width="160" height="80" as="geometry" />
        </mxCell>
        <mxCell id="OWdNk56Qyckdl0vmcLq8-18" value="GameServer" style="rounded=0;whiteSpace=wrap;html=1;fillColor=#0050ef;fontColor=#ffffff;strokeColor=#001DBC;" parent="1" vertex="1">
          <mxGeometry x="2680" y="1760" width="160" height="80" as="geometry" />
        </mxCell>
        <mxCell id="OWdNk56Qyckdl0vmcLq8-19" value="GameServer" style="rounded=0;whiteSpace=wrap;html=1;fillColor=#0050ef;fontColor=#ffffff;strokeColor=#001DBC;" parent="1" vertex="1">
          <mxGeometry x="2920" y="1760" width="160" height="80" as="geometry" />
        </mxCell>
        <mxCell id="OWdNk56Qyckdl0vmcLq8-21" value="" style="endArrow=none;html=1;rounded=0;entryX=0.5;entryY=1;entryDx=0;entryDy=0;exitX=0.5;exitY=0;exitDx=0;exitDy=0;" parent="1" source="OWdNk56Qyckdl0vmcLq8-17" target="OWdNk56Qyckdl0vmcLq8-2" edge="1">
          <mxGeometry width="50" height="50" relative="1" as="geometry">
            <mxPoint x="2570" y="1660" as="sourcePoint" />
            <mxPoint x="2620" y="1610" as="targetPoint" />
          </mxGeometry>
        </mxCell>
        <mxCell id="OWdNk56Qyckdl0vmcLq8-22" value="" style="endArrow=none;html=1;rounded=0;entryX=0.5;entryY=1;entryDx=0;entryDy=0;exitX=0.5;exitY=0;exitDx=0;exitDy=0;" parent="1" source="OWdNk56Qyckdl0vmcLq8-18" target="OWdNk56Qyckdl0vmcLq8-2" edge="1">
          <mxGeometry width="50" height="50" relative="1" as="geometry">
            <mxPoint x="2550" y="1690" as="sourcePoint" />
            <mxPoint x="2470" y="1570" as="targetPoint" />
          </mxGeometry>
        </mxCell>
        <mxCell id="OWdNk56Qyckdl0vmcLq8-23" value="" style="endArrow=none;html=1;rounded=0;exitX=0.5;exitY=0;exitDx=0;exitDy=0;entryX=0.5;entryY=1;entryDx=0;entryDy=0;" parent="1" source="OWdNk56Qyckdl0vmcLq8-19" target="OWdNk56Qyckdl0vmcLq8-2" edge="1">
          <mxGeometry width="50" height="50" relative="1" as="geometry">
            <mxPoint x="2560" y="1700" as="sourcePoint" />
            <mxPoint x="2640" y="1580" as="targetPoint" />
          </mxGeometry>
        </mxCell>
        <mxCell id="OWdNk56Qyckdl0vmcLq8-311" style="edgeStyle=orthogonalEdgeStyle;rounded=0;orthogonalLoop=1;jettySize=auto;html=1;exitX=0;exitY=0.5;exitDx=0;exitDy=0;entryX=0.5;entryY=0;entryDx=0;entryDy=0;" parent="1" source="OWdNk56Qyckdl0vmcLq8-25" target="BEcbsJx2-mrvWG48KEEz-1" edge="1">
          <mxGeometry relative="1" as="geometry">
            <mxPoint x="1660" y="1760" as="targetPoint" />
          </mxGeometry>
        </mxCell>
        <mxCell id="OWdNk56Qyckdl0vmcLq8-25" value="Unreal Engine Client" style="rounded=0;whiteSpace=wrap;html=1;rotation=-90;fillColor=#d5e8d4;strokeColor=#82b366;" parent="1" vertex="1">
          <mxGeometry x="1440" y="1320" width="440" height="40" as="geometry" />
        </mxCell>
        <mxCell id="OWdNk56Qyckdl0vmcLq8-43" value="Unreal Engine DS" style="rounded=0;whiteSpace=wrap;html=1;rotation=-90;fillColor=#e1d5e7;strokeColor=#9673a6;" parent="1" vertex="1">
          <mxGeometry x="2400" y="1960" width="120" height="40" as="geometry" />
        </mxCell>
        <mxCell id="OWdNk56Qyckdl0vmcLq8-44" value="Unreal Engine DS" style="rounded=0;whiteSpace=wrap;html=1;rotation=-90;fillColor=#e1d5e7;strokeColor=#9673a6;" parent="1" vertex="1">
          <mxGeometry x="2460" y="1960" width="120" height="40" as="geometry" />
        </mxCell>
        <mxCell id="OWdNk56Qyckdl0vmcLq8-45" value="Unreal Engine DS" style="rounded=0;whiteSpace=wrap;html=1;rotation=-90;fillColor=#e1d5e7;strokeColor=#9673a6;" parent="1" vertex="1">
          <mxGeometry x="2520" y="1960" width="120" height="40" as="geometry" />
        </mxCell>
        <mxCell id="OWdNk56Qyckdl0vmcLq8-312" style="edgeStyle=orthogonalEdgeStyle;rounded=0;orthogonalLoop=1;jettySize=auto;html=1;exitX=0;exitY=0.5;exitDx=0;exitDy=0;entryX=0.5;entryY=1;entryDx=0;entryDy=0;" parent="1" source="OWdNk56Qyckdl0vmcLq8-46" target="BEcbsJx2-mrvWG48KEEz-1" edge="1">
          <mxGeometry relative="1" as="geometry">
            <mxPoint x="1660" y="1840" as="targetPoint" />
          </mxGeometry>
        </mxCell>
        <mxCell id="OWdNk56Qyckdl0vmcLq8-46" value="Unreal Engine DS" style="rounded=0;whiteSpace=wrap;html=1;rotation=-90;fillColor=#e1d5e7;strokeColor=#9673a6;" parent="1" vertex="1">
          <mxGeometry x="2400" y="2100" width="120" height="40" as="geometry" />
        </mxCell>
        <mxCell id="OWdNk56Qyckdl0vmcLq8-47" value="Unreal Engine DS" style="rounded=0;whiteSpace=wrap;html=1;rotation=-90;fillColor=#e1d5e7;strokeColor=#9673a6;" parent="1" vertex="1">
          <mxGeometry x="2460" y="2100" width="120" height="40" as="geometry" />
        </mxCell>
        <mxCell id="OWdNk56Qyckdl0vmcLq8-49" value="Unreal Engine DS" style="rounded=0;whiteSpace=wrap;html=1;rotation=-90;fillColor=#e1d5e7;strokeColor=#9673a6;" parent="1" vertex="1">
          <mxGeometry x="2640" y="1960" width="120" height="40" as="geometry" />
        </mxCell>
        <mxCell id="OWdNk56Qyckdl0vmcLq8-50" value="Unreal Engine DS" style="rounded=0;whiteSpace=wrap;html=1;rotation=-90;fillColor=#e1d5e7;strokeColor=#9673a6;" parent="1" vertex="1">
          <mxGeometry x="2700" y="1960" width="120" height="40" as="geometry" />
        </mxCell>
        <mxCell id="OWdNk56Qyckdl0vmcLq8-51" value="Unreal Engine DS" style="rounded=0;whiteSpace=wrap;html=1;rotation=-90;fillColor=#e1d5e7;strokeColor=#9673a6;" parent="1" vertex="1">
          <mxGeometry x="2880" y="2100" width="120" height="40" as="geometry" />
        </mxCell>
        <mxCell id="OWdNk56Qyckdl0vmcLq8-52" value="Unreal Engine DS" style="rounded=0;whiteSpace=wrap;html=1;rotation=-90;fillColor=#e1d5e7;strokeColor=#9673a6;" parent="1" vertex="1">
          <mxGeometry x="2880" y="1960" width="120" height="40" as="geometry" />
        </mxCell>
        <mxCell id="OWdNk56Qyckdl0vmcLq8-53" value="Unreal Engine DS" style="rounded=0;whiteSpace=wrap;html=1;rotation=-90;fillColor=#e1d5e7;strokeColor=#9673a6;" parent="1" vertex="1">
          <mxGeometry x="2940" y="1960" width="120" height="40" as="geometry" />
        </mxCell>
        <mxCell id="OWdNk56Qyckdl0vmcLq8-54" value="Unreal Engine DS" style="rounded=0;whiteSpace=wrap;html=1;rotation=-90;fillColor=#e1d5e7;strokeColor=#9673a6;" parent="1" vertex="1">
          <mxGeometry x="3000" y="1960" width="120" height="40" as="geometry" />
        </mxCell>
        <mxCell id="OWdNk56Qyckdl0vmcLq8-55" value="" style="endArrow=none;html=1;rounded=0;entryX=0.5;entryY=1;entryDx=0;entryDy=0;exitX=1;exitY=0.5;exitDx=0;exitDy=0;edgeStyle=orthogonalEdgeStyle;fillColor=#e1d5e7;strokeColor=#9673a6;" parent="1" source="OWdNk56Qyckdl0vmcLq8-43" target="OWdNk56Qyckdl0vmcLq8-17" edge="1">
          <mxGeometry width="50" height="50" relative="1" as="geometry">
            <mxPoint x="2650" y="1930" as="sourcePoint" />
            <mxPoint x="2700" y="1880" as="targetPoint" />
          </mxGeometry>
        </mxCell>
        <mxCell id="OWdNk56Qyckdl0vmcLq8-56" value="" style="endArrow=none;html=1;rounded=0;entryX=0.5;entryY=1;entryDx=0;entryDy=0;exitX=1;exitY=0.5;exitDx=0;exitDy=0;fillColor=#e1d5e7;strokeColor=#9673a6;" parent="1" source="OWdNk56Qyckdl0vmcLq8-44" target="OWdNk56Qyckdl0vmcLq8-17" edge="1">
          <mxGeometry width="50" height="50" relative="1" as="geometry">
            <mxPoint x="2270" y="1970" as="sourcePoint" />
            <mxPoint x="2320" y="1920" as="targetPoint" />
          </mxGeometry>
        </mxCell>
        <mxCell id="OWdNk56Qyckdl0vmcLq8-57" value="" style="endArrow=none;html=1;rounded=0;entryX=0.5;entryY=1;entryDx=0;entryDy=0;exitX=1;exitY=0.5;exitDx=0;exitDy=0;edgeStyle=orthogonalEdgeStyle;fillColor=#e1d5e7;strokeColor=#9673a6;" parent="1" source="OWdNk56Qyckdl0vmcLq8-45" target="OWdNk56Qyckdl0vmcLq8-17" edge="1">
          <mxGeometry width="50" height="50" relative="1" as="geometry">
            <mxPoint x="2620" y="1930" as="sourcePoint" />
            <mxPoint x="2620" y="1850" as="targetPoint" />
          </mxGeometry>
        </mxCell>
        <mxCell id="OWdNk56Qyckdl0vmcLq8-58" value="" style="endArrow=none;html=1;rounded=0;entryX=0.5;entryY=1;entryDx=0;entryDy=0;edgeStyle=orthogonalEdgeStyle;exitX=0.5;exitY=0;exitDx=0;exitDy=0;fillColor=#e1d5e7;strokeColor=#9673a6;" parent="1" source="OWdNk56Qyckdl0vmcLq8-46" target="OWdNk56Qyckdl0vmcLq8-17" edge="1">
          <mxGeometry width="50" height="50" relative="1" as="geometry">
            <mxPoint x="2240" y="1960" as="sourcePoint" />
            <mxPoint x="2460" y="1870" as="targetPoint" />
            <Array as="points">
              <mxPoint x="2420" y="2120" />
              <mxPoint x="2420" y="1880" />
              <mxPoint x="2520" y="1880" />
            </Array>
          </mxGeometry>
        </mxCell>
        <mxCell id="OWdNk56Qyckdl0vmcLq8-59" value="" style="endArrow=none;html=1;rounded=0;exitX=0.5;exitY=1;exitDx=0;exitDy=0;edgeStyle=orthogonalEdgeStyle;entryX=0.5;entryY=1;entryDx=0;entryDy=0;fillColor=#e1d5e7;strokeColor=#9673a6;" parent="1" source="OWdNk56Qyckdl0vmcLq8-47" target="OWdNk56Qyckdl0vmcLq8-17" edge="1">
          <mxGeometry width="50" height="50" relative="1" as="geometry">
            <mxPoint x="2670" y="2190" as="sourcePoint" />
            <mxPoint x="2720" y="2140" as="targetPoint" />
            <Array as="points">
              <mxPoint x="2620" y="2120" />
              <mxPoint x="2620" y="1880" />
              <mxPoint x="2520" y="1880" />
            </Array>
          </mxGeometry>
        </mxCell>
        <mxCell id="OWdNk56Qyckdl0vmcLq8-60" value="" style="endArrow=none;html=1;rounded=0;entryX=0.5;entryY=1;entryDx=0;entryDy=0;exitX=1;exitY=0.5;exitDx=0;exitDy=0;edgeStyle=orthogonalEdgeStyle;fillColor=#e1d5e7;strokeColor=#9673a6;" parent="1" source="OWdNk56Qyckdl0vmcLq8-49" target="OWdNk56Qyckdl0vmcLq8-18" edge="1">
          <mxGeometry width="50" height="50" relative="1" as="geometry">
            <mxPoint x="2650" y="1930" as="sourcePoint" />
            <mxPoint x="2700" y="1880" as="targetPoint" />
          </mxGeometry>
        </mxCell>
        <mxCell id="OWdNk56Qyckdl0vmcLq8-61" value="" style="endArrow=none;html=1;rounded=0;entryX=0.5;entryY=1;entryDx=0;entryDy=0;exitX=1;exitY=0.5;exitDx=0;exitDy=0;edgeStyle=orthogonalEdgeStyle;fillColor=#e1d5e7;strokeColor=#9673a6;" parent="1" source="OWdNk56Qyckdl0vmcLq8-50" target="OWdNk56Qyckdl0vmcLq8-18" edge="1">
          <mxGeometry width="50" height="50" relative="1" as="geometry">
            <mxPoint x="2650" y="1930" as="sourcePoint" />
            <mxPoint x="2700" y="1880" as="targetPoint" />
          </mxGeometry>
        </mxCell>
        <mxCell id="OWdNk56Qyckdl0vmcLq8-62" value="" style="endArrow=none;html=1;rounded=0;entryX=0.5;entryY=1;entryDx=0;entryDy=0;exitX=1;exitY=0.5;exitDx=0;exitDy=0;edgeStyle=orthogonalEdgeStyle;fillColor=#e1d5e7;strokeColor=#9673a6;" parent="1" source="OWdNk56Qyckdl0vmcLq8-53" target="OWdNk56Qyckdl0vmcLq8-19" edge="1">
          <mxGeometry width="50" height="50" relative="1" as="geometry">
            <mxPoint x="2850" y="1930" as="sourcePoint" />
            <mxPoint x="2900" y="1880" as="targetPoint" />
          </mxGeometry>
        </mxCell>
        <mxCell id="OWdNk56Qyckdl0vmcLq8-63" value="" style="endArrow=none;html=1;rounded=0;entryX=0.5;entryY=1;entryDx=0;entryDy=0;exitX=1;exitY=0.5;exitDx=0;exitDy=0;edgeStyle=orthogonalEdgeStyle;fillColor=#e1d5e7;strokeColor=#9673a6;" parent="1" source="OWdNk56Qyckdl0vmcLq8-54" target="OWdNk56Qyckdl0vmcLq8-19" edge="1">
          <mxGeometry width="50" height="50" relative="1" as="geometry">
            <mxPoint x="3010" y="1930" as="sourcePoint" />
            <mxPoint x="3010" y="1850" as="targetPoint" />
          </mxGeometry>
        </mxCell>
        <mxCell id="OWdNk56Qyckdl0vmcLq8-64" value="" style="endArrow=none;html=1;rounded=0;entryX=0.5;entryY=1;entryDx=0;entryDy=0;exitX=1;exitY=0.5;exitDx=0;exitDy=0;edgeStyle=orthogonalEdgeStyle;fillColor=#e1d5e7;strokeColor=#9673a6;" parent="1" source="OWdNk56Qyckdl0vmcLq8-52" target="OWdNk56Qyckdl0vmcLq8-19" edge="1">
          <mxGeometry width="50" height="50" relative="1" as="geometry">
            <mxPoint x="3010" y="1930" as="sourcePoint" />
            <mxPoint x="3010" y="1850" as="targetPoint" />
          </mxGeometry>
        </mxCell>
        <mxCell id="OWdNk56Qyckdl0vmcLq8-65" value="" style="endArrow=none;html=1;rounded=0;entryX=0.5;entryY=1;entryDx=0;entryDy=0;exitX=0.5;exitY=0;exitDx=0;exitDy=0;edgeStyle=orthogonalEdgeStyle;fillColor=#e1d5e7;strokeColor=#9673a6;" parent="1" source="OWdNk56Qyckdl0vmcLq8-51" target="OWdNk56Qyckdl0vmcLq8-19" edge="1">
          <mxGeometry width="50" height="50" relative="1" as="geometry">
            <mxPoint x="3020" y="1940" as="sourcePoint" />
            <mxPoint x="3020" y="1860" as="targetPoint" />
            <Array as="points">
              <mxPoint x="2900" y="2120" />
              <mxPoint x="2900" y="1880" />
              <mxPoint x="3000" y="1880" />
            </Array>
          </mxGeometry>
        </mxCell>
        <mxCell id="OWdNk56Qyckdl0vmcLq8-377" style="edgeStyle=orthogonalEdgeStyle;rounded=0;orthogonalLoop=1;jettySize=auto;html=1;exitX=1;exitY=0.5;exitDx=0;exitDy=0;entryX=0.5;entryY=0;entryDx=0;entryDy=0;fillColor=#1ba1e2;strokeColor=#006EAF;" parent="1" source="OWdNk56Qyckdl0vmcLq8-66" target="OWdNk56Qyckdl0vmcLq8-313" edge="1">
          <mxGeometry relative="1" as="geometry">
            <Array as="points">
              <mxPoint x="2880" y="1320" />
              <mxPoint x="2880" y="80" />
              <mxPoint x="3800" y="80" />
            </Array>
          </mxGeometry>
        </mxCell>
        <mxCell id="OWdNk56Qyckdl0vmcLq8-66" value="BrokerManager" style="rounded=0;whiteSpace=wrap;html=1;fillColor=#1ba1e2;strokeColor=#006EAF;fontColor=#ffffff;" parent="1" vertex="1">
          <mxGeometry x="2360" y="1280" width="160" height="80" as="geometry" />
        </mxCell>
        <mxCell id="OWdNk56Qyckdl0vmcLq8-67" value="" style="endArrow=none;html=1;rounded=0;entryX=0;entryY=0.5;entryDx=0;entryDy=0;exitX=0.5;exitY=1;exitDx=0;exitDy=0;fillColor=#e1d5e7;strokeColor=#9673a6;" parent="1" source="OWdNk56Qyckdl0vmcLq8-25" target="wflJlrnDviMMXbUjv76Y-1" edge="1">
          <mxGeometry width="50" height="50" relative="1" as="geometry">
            <mxPoint x="1950" y="1360" as="sourcePoint" />
            <mxPoint x="2000" y="1310" as="targetPoint" />
          </mxGeometry>
        </mxCell>
        <mxCell id="OWdNk56Qyckdl0vmcLq8-68" value="" style="endArrow=none;html=1;rounded=0;entryX=0;entryY=0.5;entryDx=0;entryDy=0;exitX=0.5;exitY=1;exitDx=0;exitDy=0;fillColor=#e1d5e7;strokeColor=#9673a6;" parent="1" source="OWdNk56Qyckdl0vmcLq8-25" target="wflJlrnDviMMXbUjv76Y-3" edge="1">
          <mxGeometry width="50" height="50" relative="1" as="geometry">
            <mxPoint x="1770" y="1350" as="sourcePoint" />
            <mxPoint x="1890" y="1170" as="targetPoint" />
          </mxGeometry>
        </mxCell>
        <mxCell id="OWdNk56Qyckdl0vmcLq8-70" value="" style="endArrow=none;html=1;rounded=0;entryX=0;entryY=0.5;entryDx=0;entryDy=0;exitX=1;exitY=0.5;exitDx=0;exitDy=0;fillColor=#1ba1e2;strokeColor=#006EAF;" parent="1" source="wflJlrnDviMMXbUjv76Y-1" target="OWdNk56Qyckdl0vmcLq8-69" edge="1">
          <mxGeometry width="50" height="50" relative="1" as="geometry">
            <mxPoint x="2040" y="1160" as="sourcePoint" />
            <mxPoint x="2800" y="1160" as="targetPoint" />
          </mxGeometry>
        </mxCell>
        <mxCell id="OWdNk56Qyckdl0vmcLq8-69" value="Redis Stream" style="rounded=1;whiteSpace=wrap;html=1;fillColor=#1ba1e2;strokeColor=#006EAF;fontColor=#ffffff;" parent="1" vertex="1">
          <mxGeometry x="2360" y="1140" width="80" height="40" as="geometry" />
        </mxCell>
        <mxCell id="OWdNk56Qyckdl0vmcLq8-74" value="" style="endArrow=none;html=1;rounded=0;entryX=0;entryY=0.5;entryDx=0;entryDy=0;exitX=0.5;exitY=0;exitDx=0;exitDy=0;fillColor=#1ba1e2;strokeColor=#006EAF;" parent="1" source="OWdNk56Qyckdl0vmcLq8-19" target="OWdNk56Qyckdl0vmcLq8-71" edge="1">
          <mxGeometry width="50" height="50" relative="1" as="geometry">
            <mxPoint x="2560" y="1520" as="sourcePoint" />
            <mxPoint x="2800" y="1160" as="targetPoint" />
          </mxGeometry>
        </mxCell>
        <mxCell id="OWdNk56Qyckdl0vmcLq8-71" value="Redis Stream" style="rounded=1;whiteSpace=wrap;html=1;rotation=0;fillColor=#1ba1e2;strokeColor=#006EAF;fontColor=#ffffff;" parent="1" vertex="1">
          <mxGeometry x="3000" y="1560" width="80" height="40" as="geometry" />
        </mxCell>
        <mxCell id="OWdNk56Qyckdl0vmcLq8-78" value="" style="endArrow=none;html=1;rounded=0;exitX=0.5;exitY=1;exitDx=0;exitDy=0;entryX=0.5;entryY=0;entryDx=0;entryDy=0;edgeStyle=orthogonalEdgeStyle;fillColor=#1ba1e2;strokeColor=#006EAF;" parent="1" source="OWdNk56Qyckdl0vmcLq8-66" target="OWdNk56Qyckdl0vmcLq8-71" edge="1">
          <mxGeometry width="50" height="50" relative="1" as="geometry">
            <mxPoint x="2690" y="1450" as="sourcePoint" />
            <mxPoint x="2740" y="1400" as="targetPoint" />
          </mxGeometry>
        </mxCell>
        <mxCell id="OWdNk56Qyckdl0vmcLq8-79" value="" style="endArrow=none;html=1;rounded=0;exitX=0.5;exitY=0;exitDx=0;exitDy=0;entryX=0.5;entryY=1;entryDx=0;entryDy=0;edgeStyle=orthogonalEdgeStyle;fillColor=#1ba1e2;strokeColor=#006EAF;" parent="1" source="OWdNk56Qyckdl0vmcLq8-66" target="OWdNk56Qyckdl0vmcLq8-69" edge="1">
          <mxGeometry width="50" height="50" relative="1" as="geometry">
            <mxPoint x="2690" y="1450" as="sourcePoint" />
            <mxPoint x="2740" y="1400" as="targetPoint" />
          </mxGeometry>
        </mxCell>
        <mxCell id="OWdNk56Qyckdl0vmcLq8-86" value="TODO&amp;nbsp;&lt;br&gt;MoreLogicServer" style="rounded=0;whiteSpace=wrap;html=1;fillColor=#0050ef;fontColor=#ffffff;strokeColor=#001DBC;" parent="1" vertex="1">
          <mxGeometry x="2160" y="1800" width="160" height="80" as="geometry" />
        </mxCell>
        <mxCell id="OWdNk56Qyckdl0vmcLq8-87" value="Redis Stream" style="rounded=1;whiteSpace=wrap;html=1;rotation=0;fillColor=#1ba1e2;strokeColor=#006EAF;fontColor=#ffffff;" parent="1" vertex="1">
          <mxGeometry x="2880" y="1520" width="80" height="40" as="geometry" />
        </mxCell>
        <mxCell id="OWdNk56Qyckdl0vmcLq8-88" value="" style="endArrow=none;html=1;rounded=0;exitX=1;exitY=0.5;exitDx=0;exitDy=0;fillColor=#1ba1e2;strokeColor=#006EAF;entryX=0;entryY=0.5;entryDx=0;entryDy=0;" parent="1" source="OWdNk56Qyckdl0vmcLq8-87" target="OWdNk56Qyckdl0vmcLq8-1" edge="1">
          <mxGeometry width="50" height="50" relative="1" as="geometry">
            <mxPoint x="3150" y="1550" as="sourcePoint" />
            <mxPoint x="3130" y="1200" as="targetPoint" />
          </mxGeometry>
        </mxCell>
        <mxCell id="OWdNk56Qyckdl0vmcLq8-89" value="Redis Stream" style="rounded=1;whiteSpace=wrap;html=1;rotation=0;fillColor=#1ba1e2;strokeColor=#006EAF;fontColor=#ffffff;" parent="1" vertex="1">
          <mxGeometry x="2760" y="1480" width="80" height="40" as="geometry" />
        </mxCell>
        <mxCell id="OWdNk56Qyckdl0vmcLq8-90" value="" style="endArrow=none;html=1;rounded=0;entryX=0;entryY=0.5;entryDx=0;entryDy=0;exitX=0.5;exitY=0;exitDx=0;exitDy=0;fillColor=#1ba1e2;strokeColor=#006EAF;" parent="1" source="OWdNk56Qyckdl0vmcLq8-18" target="OWdNk56Qyckdl0vmcLq8-87" edge="1">
          <mxGeometry width="50" height="50" relative="1" as="geometry">
            <mxPoint x="3010" y="1770" as="sourcePoint" />
            <mxPoint x="3030" y="1550" as="targetPoint" />
          </mxGeometry>
        </mxCell>
        <mxCell id="OWdNk56Qyckdl0vmcLq8-91" value="" style="endArrow=none;html=1;rounded=0;exitX=1;exitY=0.5;exitDx=0;exitDy=0;fillColor=#1ba1e2;strokeColor=#006EAF;entryX=0;entryY=0.5;entryDx=0;entryDy=0;" parent="1" source="OWdNk56Qyckdl0vmcLq8-89" target="OWdNk56Qyckdl0vmcLq8-1" edge="1">
          <mxGeometry width="50" height="50" relative="1" as="geometry">
            <mxPoint x="3050" y="1470" as="sourcePoint" />
            <mxPoint x="3210" y="1170" as="targetPoint" />
          </mxGeometry>
        </mxCell>
        <mxCell id="OWdNk56Qyckdl0vmcLq8-92" value="" style="endArrow=none;html=1;rounded=0;entryX=0;entryY=0.5;entryDx=0;entryDy=0;exitX=0.5;exitY=0;exitDx=0;exitDy=0;fillColor=#1ba1e2;strokeColor=#006EAF;" parent="1" source="OWdNk56Qyckdl0vmcLq8-17" target="OWdNk56Qyckdl0vmcLq8-89" edge="1">
          <mxGeometry width="50" height="50" relative="1" as="geometry">
            <mxPoint x="2770" y="1770" as="sourcePoint" />
            <mxPoint x="2930" y="1550" as="targetPoint" />
          </mxGeometry>
        </mxCell>
        <mxCell id="OWdNk56Qyckdl0vmcLq8-93" value="" style="endArrow=none;html=1;rounded=0;exitX=0.5;exitY=1;exitDx=0;exitDy=0;entryX=0.5;entryY=0;entryDx=0;entryDy=0;edgeStyle=orthogonalEdgeStyle;fillColor=#1ba1e2;strokeColor=#006EAF;" parent="1" source="OWdNk56Qyckdl0vmcLq8-66" target="OWdNk56Qyckdl0vmcLq8-87" edge="1">
          <mxGeometry width="50" height="50" relative="1" as="geometry">
            <mxPoint x="2690" y="1330" as="sourcePoint" />
            <mxPoint x="3090" y="1570" as="targetPoint" />
          </mxGeometry>
        </mxCell>
        <mxCell id="OWdNk56Qyckdl0vmcLq8-94" value="" style="endArrow=none;html=1;rounded=0;exitX=0.5;exitY=1;exitDx=0;exitDy=0;entryX=0.5;entryY=0;entryDx=0;entryDy=0;edgeStyle=orthogonalEdgeStyle;fillColor=#1ba1e2;strokeColor=#006EAF;" parent="1" source="OWdNk56Qyckdl0vmcLq8-66" target="OWdNk56Qyckdl0vmcLq8-89" edge="1">
          <mxGeometry width="50" height="50" relative="1" as="geometry">
            <mxPoint x="2700" y="1340" as="sourcePoint" />
            <mxPoint x="3100" y="1580" as="targetPoint" />
          </mxGeometry>
        </mxCell>
        <mxCell id="OWdNk56Qyckdl0vmcLq8-95" value="Redis Stream" style="rounded=1;whiteSpace=wrap;html=1;fillColor=#1ba1e2;strokeColor=#006EAF;fontColor=#ffffff;" parent="1" vertex="1">
          <mxGeometry x="2160" y="1560" width="80" height="40" as="geometry" />
        </mxCell>
        <mxCell id="OWdNk56Qyckdl0vmcLq8-97" value="" style="endArrow=none;html=1;rounded=0;fillColor=#1ba1e2;strokeColor=#006EAF;entryX=0;entryY=0.5;entryDx=0;entryDy=0;exitX=1;exitY=0.5;exitDx=0;exitDy=0;" parent="1" source="wflJlrnDviMMXbUjv76Y-2" target="OWdNk56Qyckdl0vmcLq8-95" edge="1">
          <mxGeometry width="50" height="50" relative="1" as="geometry">
            <mxPoint x="2310" y="1450" as="sourcePoint" />
            <mxPoint x="2360" y="1400" as="targetPoint" />
          </mxGeometry>
        </mxCell>
        <mxCell id="OWdNk56Qyckdl0vmcLq8-98" value="" style="endArrow=none;html=1;rounded=0;entryX=0;entryY=0.5;entryDx=0;entryDy=0;exitX=1;exitY=0.5;exitDx=0;exitDy=0;" parent="1" source="OWdNk56Qyckdl0vmcLq8-2" target="OWdNk56Qyckdl0vmcLq8-1" edge="1">
          <mxGeometry width="50" height="50" relative="1" as="geometry">
            <mxPoint x="2710" y="1450" as="sourcePoint" />
            <mxPoint x="2760" y="1400" as="targetPoint" />
          </mxGeometry>
        </mxCell>
        <mxCell id="OWdNk56Qyckdl0vmcLq8-99" value="" style="endArrow=none;html=1;rounded=0;fillColor=#1ba1e2;strokeColor=#006EAF;entryX=0.5;entryY=0;entryDx=0;entryDy=0;exitX=1;exitY=0.5;exitDx=0;exitDy=0;" parent="1" source="OWdNk56Qyckdl0vmcLq8-95" target="OWdNk56Qyckdl0vmcLq8-86" edge="1">
          <mxGeometry width="50" height="50" relative="1" as="geometry">
            <mxPoint x="2010" y="1290" as="sourcePoint" />
            <mxPoint x="2090" y="1590" as="targetPoint" />
          </mxGeometry>
        </mxCell>
        <mxCell id="OWdNk56Qyckdl0vmcLq8-100" value="Redis Stream" style="rounded=1;whiteSpace=wrap;html=1;fillColor=#1ba1e2;strokeColor=#006EAF;fontColor=#ffffff;" parent="1" vertex="1">
          <mxGeometry x="2110" y="1640" width="80" height="40" as="geometry" />
        </mxCell>
        <mxCell id="OWdNk56Qyckdl0vmcLq8-309" style="edgeStyle=orthogonalEdgeStyle;rounded=0;orthogonalLoop=1;jettySize=auto;html=1;exitX=0.5;exitY=1;exitDx=0;exitDy=0;entryX=0.5;entryY=1;entryDx=0;entryDy=0;fillColor=#fff2cc;strokeColor=#d6b656;" parent="1" source="OWdNk56Qyckdl0vmcLq8-101" target="OWdNk56Qyckdl0vmcLq8-163" edge="1">
          <mxGeometry relative="1" as="geometry">
            <Array as="points">
              <mxPoint x="2120" y="2840" />
              <mxPoint x="460" y="2840" />
            </Array>
          </mxGeometry>
        </mxCell>
        <mxCell id="OWdNk56Qyckdl0vmcLq8-101" value="Redis Stream" style="rounded=1;whiteSpace=wrap;html=1;fillColor=#1ba1e2;strokeColor=#006EAF;fontColor=#ffffff;" parent="1" vertex="1">
          <mxGeometry x="2080" y="1720" width="80" height="40" as="geometry" />
        </mxCell>
        <mxCell id="OWdNk56Qyckdl0vmcLq8-102" value="" style="endArrow=none;html=1;rounded=0;fillColor=#1ba1e2;strokeColor=#006EAF;entryX=0.5;entryY=0;entryDx=0;entryDy=0;exitX=1;exitY=0.5;exitDx=0;exitDy=0;" parent="1" source="OWdNk56Qyckdl0vmcLq8-100" target="OWdNk56Qyckdl0vmcLq8-86" edge="1">
          <mxGeometry width="50" height="50" relative="1" as="geometry">
            <mxPoint x="2239.5" y="1580" as="sourcePoint" />
            <mxPoint x="2320.5" y="1756" as="targetPoint" />
          </mxGeometry>
        </mxCell>
        <mxCell id="OWdNk56Qyckdl0vmcLq8-103" value="" style="endArrow=none;html=1;rounded=0;fillColor=#1ba1e2;strokeColor=#006EAF;entryX=0.5;entryY=0;entryDx=0;entryDy=0;exitX=1;exitY=0.5;exitDx=0;exitDy=0;" parent="1" source="OWdNk56Qyckdl0vmcLq8-101" target="OWdNk56Qyckdl0vmcLq8-86" edge="1">
          <mxGeometry width="50" height="50" relative="1" as="geometry">
            <mxPoint x="2220" y="1600" as="sourcePoint" />
            <mxPoint x="2301" y="1776" as="targetPoint" />
          </mxGeometry>
        </mxCell>
        <mxCell id="OWdNk56Qyckdl0vmcLq8-104" value="" style="endArrow=none;html=1;rounded=0;fillColor=#1ba1e2;strokeColor=#006EAF;entryX=0;entryY=0.5;entryDx=0;entryDy=0;exitX=1;exitY=0.5;exitDx=0;exitDy=0;" parent="1" source="wflJlrnDviMMXbUjv76Y-3" target="OWdNk56Qyckdl0vmcLq8-100" edge="1">
          <mxGeometry width="50" height="50" relative="1" as="geometry">
            <mxPoint x="2010" y="1290" as="sourcePoint" />
            <mxPoint x="2130" y="1590" as="targetPoint" />
          </mxGeometry>
        </mxCell>
        <mxCell id="OWdNk56Qyckdl0vmcLq8-105" value="" style="endArrow=none;html=1;rounded=0;fillColor=#1ba1e2;strokeColor=#006EAF;entryX=0;entryY=0.5;entryDx=0;entryDy=0;exitX=0.5;exitY=1;exitDx=0;exitDy=0;" parent="1" source="wflJlrnDviMMXbUjv76Y-4" target="OWdNk56Qyckdl0vmcLq8-101" edge="1">
          <mxGeometry width="50" height="50" relative="1" as="geometry">
            <mxPoint x="2020" y="1300" as="sourcePoint" />
            <mxPoint x="2140" y="1600" as="targetPoint" />
          </mxGeometry>
        </mxCell>
        <mxCell id="OWdNk56Qyckdl0vmcLq8-106" value="" style="endArrow=none;html=1;rounded=0;exitX=0.5;exitY=0;exitDx=0;exitDy=0;entryX=0.5;entryY=1;entryDx=0;entryDy=0;" parent="1" source="OWdNk56Qyckdl0vmcLq8-86" target="OWdNk56Qyckdl0vmcLq8-2" edge="1">
          <mxGeometry width="50" height="50" relative="1" as="geometry">
            <mxPoint x="2340" y="1570" as="sourcePoint" />
            <mxPoint x="2390" y="1520" as="targetPoint" />
          </mxGeometry>
        </mxCell>
        <mxCell id="OWdNk56Qyckdl0vmcLq8-108" value="" style="endArrow=none;html=1;rounded=0;fillColor=#1ba1e2;strokeColor=#006EAF;edgeStyle=orthogonalEdgeStyle;entryX=0;entryY=0.5;entryDx=0;entryDy=0;exitX=0.5;exitY=0;exitDx=0;exitDy=0;" parent="1" source="OWdNk56Qyckdl0vmcLq8-95" target="OWdNk56Qyckdl0vmcLq8-66" edge="1">
          <mxGeometry width="50" height="50" relative="1" as="geometry">
            <mxPoint x="2300" y="1420" as="sourcePoint" />
            <mxPoint x="2350" y="1370" as="targetPoint" />
          </mxGeometry>
        </mxCell>
        <mxCell id="OWdNk56Qyckdl0vmcLq8-109" value="" style="endArrow=none;html=1;rounded=0;fillColor=#1ba1e2;strokeColor=#006EAF;edgeStyle=orthogonalEdgeStyle;entryX=0;entryY=0.5;entryDx=0;entryDy=0;exitX=0.5;exitY=0;exitDx=0;exitDy=0;" parent="1" source="OWdNk56Qyckdl0vmcLq8-100" target="OWdNk56Qyckdl0vmcLq8-66" edge="1">
          <mxGeometry width="50" height="50" relative="1" as="geometry">
            <mxPoint x="2210" y="1570" as="sourcePoint" />
            <mxPoint x="2450" y="1330" as="targetPoint" />
          </mxGeometry>
        </mxCell>
        <mxCell id="OWdNk56Qyckdl0vmcLq8-110" value="" style="endArrow=none;html=1;rounded=0;fillColor=#1ba1e2;strokeColor=#006EAF;edgeStyle=orthogonalEdgeStyle;entryX=0;entryY=0.5;entryDx=0;entryDy=0;exitX=0.5;exitY=0;exitDx=0;exitDy=0;" parent="1" source="OWdNk56Qyckdl0vmcLq8-101" target="OWdNk56Qyckdl0vmcLq8-66" edge="1">
          <mxGeometry width="50" height="50" relative="1" as="geometry">
            <mxPoint x="2160" y="1650" as="sourcePoint" />
            <mxPoint x="2450" y="1330" as="targetPoint" />
          </mxGeometry>
        </mxCell>
        <mxCell id="OWdNk56Qyckdl0vmcLq8-112" value="" style="shape=waypoint;sketch=0;size=6;pointerEvents=1;points=[];fillColor=none;resizable=0;rotatable=0;perimeter=centerPerimeter;snapToPoint=1;" parent="1" vertex="1">
          <mxGeometry x="3090" y="1790" width="20" height="20" as="geometry" />
        </mxCell>
        <mxCell id="OWdNk56Qyckdl0vmcLq8-113" value="" style="shape=waypoint;sketch=0;size=6;pointerEvents=1;points=[];fillColor=none;resizable=0;rotatable=0;perimeter=centerPerimeter;snapToPoint=1;" parent="1" vertex="1">
          <mxGeometry x="3110" y="1790" width="20" height="20" as="geometry" />
        </mxCell>
        <mxCell id="OWdNk56Qyckdl0vmcLq8-114" value="" style="shape=waypoint;sketch=0;size=6;pointerEvents=1;points=[];fillColor=none;resizable=0;rotatable=0;perimeter=centerPerimeter;snapToPoint=1;" parent="1" vertex="1">
          <mxGeometry x="3130" y="1790" width="20" height="20" as="geometry" />
        </mxCell>
        <mxCell id="OWdNk56Qyckdl0vmcLq8-115" value="" style="shape=waypoint;sketch=0;size=6;pointerEvents=1;points=[];fillColor=none;resizable=0;rotatable=0;perimeter=centerPerimeter;snapToPoint=1;" parent="1" vertex="1">
          <mxGeometry x="1910" y="1620" width="20" height="20" as="geometry" />
        </mxCell>
        <mxCell id="OWdNk56Qyckdl0vmcLq8-116" value="" style="shape=waypoint;sketch=0;size=6;pointerEvents=1;points=[];fillColor=none;resizable=0;rotatable=0;perimeter=centerPerimeter;snapToPoint=1;" parent="1" vertex="1">
          <mxGeometry x="1910" y="1580" width="20" height="20" as="geometry" />
        </mxCell>
        <mxCell id="OWdNk56Qyckdl0vmcLq8-117" value="" style="shape=waypoint;sketch=0;size=6;pointerEvents=1;points=[];fillColor=none;resizable=0;rotatable=0;perimeter=centerPerimeter;snapToPoint=1;" parent="1" vertex="1">
          <mxGeometry x="1910" y="1600" width="20" height="20" as="geometry" />
        </mxCell>
        <mxCell id="OWdNk56Qyckdl0vmcLq8-293" style="edgeStyle=orthogonalEdgeStyle;rounded=0;orthogonalLoop=1;jettySize=auto;html=1;exitX=1;exitY=0.5;exitDx=0;exitDy=0;entryX=0;entryY=0.5;entryDx=0;entryDy=0;" parent="1" source="OWdNk56Qyckdl0vmcLq8-118" target="OWdNk56Qyckdl0vmcLq8-295" edge="1">
          <mxGeometry relative="1" as="geometry">
            <mxPoint x="840" y="120" as="targetPoint" />
            <Array as="points">
              <mxPoint x="480" y="530" />
              <mxPoint x="480" y="120" />
            </Array>
          </mxGeometry>
        </mxCell>
        <mxCell id="OWdNk56Qyckdl0vmcLq8-118" value="LoginServer" style="swimlane;whiteSpace=wrap;html=1;startSize=40;fillColor=#0050ef;fontColor=#ffffff;strokeColor=#001DBC;" parent="1" vertex="1">
          <mxGeometry x="200" y="80" width="240" height="900" as="geometry" />
        </mxCell>
        <mxCell id="OWdNk56Qyckdl0vmcLq8-119" value="registerTimerTask()" style="rounded=0;whiteSpace=wrap;html=1;" parent="OWdNk56Qyckdl0vmcLq8-118" vertex="1">
          <mxGeometry x="40" y="80" width="160" height="40" as="geometry" />
        </mxCell>
        <mxCell id="OWdNk56Qyckdl0vmcLq8-122" value="start()" style="rounded=0;whiteSpace=wrap;html=1;" parent="OWdNk56Qyckdl0vmcLq8-118" vertex="1">
          <mxGeometry x="40" y="140" width="160" height="40" as="geometry" />
        </mxCell>
        <mxCell id="OWdNk56Qyckdl0vmcLq8-123" value="initConnBlacklist()" style="rounded=0;whiteSpace=wrap;html=1;" parent="OWdNk56Qyckdl0vmcLq8-118" vertex="1">
          <mxGeometry x="40" y="200" width="160" height="40" as="geometry" />
        </mxCell>
        <mxCell id="OWdNk56Qyckdl0vmcLq8-124" value="connFilterFunc()" style="rounded=0;whiteSpace=wrap;html=1;" parent="OWdNk56Qyckdl0vmcLq8-118" vertex="1">
          <mxGeometry x="40" y="260" width="160" height="40" as="geometry" />
        </mxCell>
        <mxCell id="OWdNk56Qyckdl0vmcLq8-125" value="connNameFunc()" style="rounded=0;whiteSpace=wrap;html=1;" parent="OWdNk56Qyckdl0vmcLq8-118" vertex="1">
          <mxGeometry x="40" y="320" width="160" height="40" as="geometry" />
        </mxCell>
        <mxCell id="OWdNk56Qyckdl0vmcLq8-126" value="messageFunc()" style="rounded=0;whiteSpace=wrap;html=1;" parent="OWdNk56Qyckdl0vmcLq8-118" vertex="1">
          <mxGeometry x="40" y="380" width="160" height="40" as="geometry" />
        </mxCell>
        <mxCell id="OWdNk56Qyckdl0vmcLq8-127" value="setLongtimeTask()" style="rounded=0;whiteSpace=wrap;html=1;" parent="OWdNk56Qyckdl0vmcLq8-118" vertex="1">
          <mxGeometry x="40" y="440" width="160" height="40" as="geometry" />
        </mxCell>
        <mxCell id="OWdNk56Qyckdl0vmcLq8-128" value="loginStreamConsumerFunc()" style="rounded=0;whiteSpace=wrap;html=1;" parent="OWdNk56Qyckdl0vmcLq8-118" vertex="1">
          <mxGeometry x="40" y="500" width="160" height="40" as="geometry" />
        </mxCell>
        <mxCell id="OWdNk56Qyckdl0vmcLq8-129" value="mConf" style="rounded=1;whiteSpace=wrap;html=1;arcSize=46;" parent="OWdNk56Qyckdl0vmcLq8-118" vertex="1">
          <mxGeometry x="60" y="580" width="120" height="40" as="geometry" />
        </mxCell>
        <mxCell id="OWdNk56Qyckdl0vmcLq8-130" value="mTcpServer" style="rounded=1;whiteSpace=wrap;html=1;arcSize=46;" parent="OWdNk56Qyckdl0vmcLq8-118" vertex="1">
          <mxGeometry x="60" y="640" width="120" height="40" as="geometry" />
        </mxCell>
        <mxCell id="OWdNk56Qyckdl0vmcLq8-131" value="mEventLoopTIDs" style="rounded=1;whiteSpace=wrap;html=1;arcSize=46;" parent="OWdNk56Qyckdl0vmcLq8-118" vertex="1">
          <mxGeometry x="60" y="700" width="120" height="40" as="geometry" />
        </mxCell>
        <mxCell id="OWdNk56Qyckdl0vmcLq8-132" value="mRedis" style="rounded=1;whiteSpace=wrap;html=1;arcSize=46;" parent="OWdNk56Qyckdl0vmcLq8-118" vertex="1">
          <mxGeometry x="60" y="760" width="120" height="40" as="geometry" />
        </mxCell>
        <mxCell id="OWdNk56Qyckdl0vmcLq8-133" value="mLoginMessageOp" style="rounded=1;whiteSpace=wrap;html=1;arcSize=46;" parent="OWdNk56Qyckdl0vmcLq8-118" vertex="1">
          <mxGeometry x="60" y="820" width="120" height="40" as="geometry" />
        </mxCell>
        <mxCell id="OWdNk56Qyckdl0vmcLq8-134" value="mTcpServer.registerTimerTask()" style="shape=document;whiteSpace=wrap;html=1;boundedLbl=1;fillColor=#dae8fc;strokeColor=#6c8ebf;" parent="1" vertex="1">
          <mxGeometry x="520" y="160" width="200" height="60" as="geometry" />
        </mxCell>
        <mxCell id="OWdNk56Qyckdl0vmcLq8-135" style="edgeStyle=orthogonalEdgeStyle;rounded=0;orthogonalLoop=1;jettySize=auto;html=1;exitX=1;exitY=0.5;exitDx=0;exitDy=0;entryX=0;entryY=0.5;entryDx=0;entryDy=0;fillColor=#dae8fc;strokeColor=#6c8ebf;" parent="1" source="OWdNk56Qyckdl0vmcLq8-119" target="OWdNk56Qyckdl0vmcLq8-134" edge="1">
          <mxGeometry relative="1" as="geometry" />
        </mxCell>
        <mxCell id="OWdNk56Qyckdl0vmcLq8-136" value="linkTimer()&lt;br&gt;initConnBlacklist()&lt;br&gt;mTcpServer.setConnFilterFunc(bind connFilterFunc)&lt;br&gt;mTcpServer.setConnNameFunc(bind connNameFunc)&lt;br&gt;mTcpServer.setMessageFunc(bind messageFunc)&lt;br&gt;setLongtimeTask(bind loginStreamConsumerFunc)&lt;br&gt;mTcpServer.start()" style="shape=document;whiteSpace=wrap;html=1;boundedLbl=1;fillColor=#dae8fc;strokeColor=#6c8ebf;" parent="1" vertex="1">
          <mxGeometry x="600" y="240" width="360" height="160" as="geometry" />
        </mxCell>
        <mxCell id="OWdNk56Qyckdl0vmcLq8-137" style="edgeStyle=orthogonalEdgeStyle;rounded=0;orthogonalLoop=1;jettySize=auto;html=1;exitX=1;exitY=0.5;exitDx=0;exitDy=0;entryX=0;entryY=0.5;entryDx=0;entryDy=0;fillColor=#dae8fc;strokeColor=#6c8ebf;" parent="1" source="OWdNk56Qyckdl0vmcLq8-122" target="OWdNk56Qyckdl0vmcLq8-136" edge="1">
          <mxGeometry relative="1" as="geometry">
            <Array as="points">
              <mxPoint x="560" y="240" />
              <mxPoint x="560" y="320" />
            </Array>
          </mxGeometry>
        </mxCell>
        <mxCell id="OWdNk56Qyckdl0vmcLq8-138" value="mTcpServer.addToBlacklist()" style="shape=document;whiteSpace=wrap;html=1;boundedLbl=1;fillColor=#dae8fc;strokeColor=#6c8ebf;" parent="1" vertex="1">
          <mxGeometry x="600" y="420" width="200" height="60" as="geometry" />
        </mxCell>
        <mxCell id="OWdNk56Qyckdl0vmcLq8-139" style="edgeStyle=orthogonalEdgeStyle;rounded=0;orthogonalLoop=1;jettySize=auto;html=1;exitX=1;exitY=0.5;exitDx=0;exitDy=0;entryX=0;entryY=0.5;entryDx=0;entryDy=0;fillColor=#dae8fc;strokeColor=#6c8ebf;" parent="1" source="OWdNk56Qyckdl0vmcLq8-123" target="OWdNk56Qyckdl0vmcLq8-138" edge="1">
          <mxGeometry relative="1" as="geometry">
            <Array as="points">
              <mxPoint x="540" y="300" />
              <mxPoint x="540" y="450" />
            </Array>
          </mxGeometry>
        </mxCell>
        <mxCell id="OWdNk56Qyckdl0vmcLq8-140" value="check if the new connected client&#39;s ip is in blacklist&amp;nbsp;" style="shape=document;whiteSpace=wrap;html=1;boundedLbl=1;fillColor=#dae8fc;strokeColor=#6c8ebf;" parent="1" vertex="1">
          <mxGeometry x="560" y="500" width="320" height="60" as="geometry" />
        </mxCell>
        <mxCell id="OWdNk56Qyckdl0vmcLq8-141" style="edgeStyle=orthogonalEdgeStyle;rounded=0;orthogonalLoop=1;jettySize=auto;html=1;exitX=1;exitY=0.5;exitDx=0;exitDy=0;entryX=0;entryY=0.5;entryDx=0;entryDy=0;fillColor=#dae8fc;strokeColor=#6c8ebf;" parent="1" source="OWdNk56Qyckdl0vmcLq8-124" target="OWdNk56Qyckdl0vmcLq8-140" edge="1">
          <mxGeometry relative="1" as="geometry">
            <Array as="points">
              <mxPoint x="520" y="360" />
              <mxPoint x="520" y="530" />
            </Array>
          </mxGeometry>
        </mxCell>
        <mxCell id="OWdNk56Qyckdl0vmcLq8-142" value="&lt;br&gt;&lt;br&gt;mTcpServer.registerTimerTask(bind LoginHeartbeatOp::checkHeartbeat)" style="shape=document;whiteSpace=wrap;html=1;boundedLbl=1;fillColor=#dae8fc;strokeColor=#6c8ebf;" parent="1" vertex="1">
          <mxGeometry x="600" y="580" width="390" height="80" as="geometry" />
        </mxCell>
        <mxCell id="OWdNk56Qyckdl0vmcLq8-156" style="edgeStyle=orthogonalEdgeStyle;rounded=0;orthogonalLoop=1;jettySize=auto;html=1;exitX=1;exitY=0.5;exitDx=0;exitDy=0;entryX=0.5;entryY=1;entryDx=0;entryDy=0;fillColor=#fff2cc;strokeColor=#d6b656;" parent="1" source="OWdNk56Qyckdl0vmcLq8-143" target="OWdNk56Qyckdl0vmcLq8-144" edge="1">
          <mxGeometry relative="1" as="geometry" />
        </mxCell>
        <mxCell id="OWdNk56Qyckdl0vmcLq8-143" value="LoginHeartbeatOp" style="rounded=0;whiteSpace=wrap;html=1;" parent="1" vertex="1">
          <mxGeometry x="735" y="580" width="120" height="35" as="geometry" />
        </mxCell>
        <mxCell id="OWdNk56Qyckdl0vmcLq8-144" value="LoginHeartbeatOp" style="swimlane;whiteSpace=wrap;html=1;startSize=40;fillColor=#fff2cc;strokeColor=#d6b656;" parent="1" vertex="1">
          <mxGeometry x="1040" y="320" width="240" height="160" as="geometry" />
        </mxCell>
        <mxCell id="OWdNk56Qyckdl0vmcLq8-145" value="checkHeartbeat()" style="rounded=0;whiteSpace=wrap;html=1;" parent="OWdNk56Qyckdl0vmcLq8-144" vertex="1">
          <mxGeometry x="40" y="80" width="160" height="40" as="geometry" />
        </mxCell>
        <mxCell id="OWdNk56Qyckdl0vmcLq8-147" value="check whether&amp;nbsp;client&#39;s heartbeat msg times out, if so close it" style="shape=document;whiteSpace=wrap;html=1;boundedLbl=1;fillColor=#dae8fc;strokeColor=#6c8ebf;" parent="1" vertex="1">
          <mxGeometry x="1360" y="360" width="360" height="60" as="geometry" />
        </mxCell>
        <mxCell id="OWdNk56Qyckdl0vmcLq8-148" style="edgeStyle=orthogonalEdgeStyle;rounded=0;orthogonalLoop=1;jettySize=auto;html=1;exitX=1;exitY=0.5;exitDx=0;exitDy=0;entryX=-0.002;entryY=0.445;entryDx=0;entryDy=0;entryPerimeter=0;fillColor=#dae8fc;strokeColor=#6c8ebf;" parent="1" source="OWdNk56Qyckdl0vmcLq8-145" target="OWdNk56Qyckdl0vmcLq8-147" edge="1">
          <mxGeometry relative="1" as="geometry" />
        </mxCell>
        <mxCell id="OWdNk56Qyckdl0vmcLq8-149" style="edgeStyle=orthogonalEdgeStyle;rounded=0;orthogonalLoop=1;jettySize=auto;html=1;exitX=1;exitY=0.5;exitDx=0;exitDy=0;entryX=0;entryY=0.5;entryDx=0;entryDy=0;fillColor=#dae8fc;strokeColor=#6c8ebf;" parent="1" source="OWdNk56Qyckdl0vmcLq8-125" target="OWdNk56Qyckdl0vmcLq8-142" edge="1">
          <mxGeometry relative="1" as="geometry">
            <Array as="points">
              <mxPoint x="500" y="420" />
              <mxPoint x="500" y="620" />
            </Array>
          </mxGeometry>
        </mxCell>
        <mxCell id="OWdNk56Qyckdl0vmcLq8-150" value="&amp;nbsp;mLoginMessageOp.messageFunc()" style="shape=document;whiteSpace=wrap;html=1;boundedLbl=1;fillColor=#dae8fc;strokeColor=#6c8ebf;" parent="1" vertex="1">
          <mxGeometry x="600" y="680" width="320" height="60" as="geometry" />
        </mxCell>
        <mxCell id="OWdNk56Qyckdl0vmcLq8-151" style="edgeStyle=orthogonalEdgeStyle;rounded=0;orthogonalLoop=1;jettySize=auto;html=1;exitX=1;exitY=0.5;exitDx=0;exitDy=0;entryX=0;entryY=0.5;entryDx=0;entryDy=0;fillColor=#dae8fc;strokeColor=#6c8ebf;" parent="1" source="OWdNk56Qyckdl0vmcLq8-126" target="OWdNk56Qyckdl0vmcLq8-150" edge="1">
          <mxGeometry relative="1" as="geometry">
            <Array as="points">
              <mxPoint x="460" y="480" />
              <mxPoint x="460" y="710" />
            </Array>
          </mxGeometry>
        </mxCell>
        <mxCell id="OWdNk56Qyckdl0vmcLq8-152" value="std::async(std::launch::async)" style="shape=document;whiteSpace=wrap;html=1;boundedLbl=1;fillColor=#dae8fc;strokeColor=#6c8ebf;" parent="1" vertex="1">
          <mxGeometry x="560" y="760" width="320" height="60" as="geometry" />
        </mxCell>
        <mxCell id="OWdNk56Qyckdl0vmcLq8-153" style="edgeStyle=orthogonalEdgeStyle;rounded=0;orthogonalLoop=1;jettySize=auto;html=1;exitX=1;exitY=0.5;exitDx=0;exitDy=0;entryX=0;entryY=0.5;entryDx=0;entryDy=0;fillColor=#dae8fc;strokeColor=#6c8ebf;" parent="1" source="OWdNk56Qyckdl0vmcLq8-127" target="OWdNk56Qyckdl0vmcLq8-152" edge="1">
          <mxGeometry relative="1" as="geometry">
            <Array as="points">
              <mxPoint x="520" y="540" />
              <mxPoint x="520" y="790" />
            </Array>
          </mxGeometry>
        </mxCell>
        <mxCell id="OWdNk56Qyckdl0vmcLq8-154" value="broker::RSBrokerHelper::pull() in loop&amp;nbsp;&lt;br&gt;connPtr =&amp;nbsp;mTcpServer.getConnPtrRef()&lt;br&gt;connPtr-&amp;gt;putToBuffer(message)" style="shape=document;whiteSpace=wrap;html=1;boundedLbl=1;fillColor=#dae8fc;strokeColor=#6c8ebf;" parent="1" vertex="1">
          <mxGeometry x="560" y="840" width="320" height="80" as="geometry" />
        </mxCell>
        <mxCell id="OWdNk56Qyckdl0vmcLq8-155" style="edgeStyle=orthogonalEdgeStyle;rounded=0;orthogonalLoop=1;jettySize=auto;html=1;exitX=1;exitY=0.5;exitDx=0;exitDy=0;entryX=0;entryY=0.5;entryDx=0;entryDy=0;fillColor=#dae8fc;strokeColor=#6c8ebf;" parent="1" source="OWdNk56Qyckdl0vmcLq8-128" target="OWdNk56Qyckdl0vmcLq8-154" edge="1">
          <mxGeometry relative="1" as="geometry" />
        </mxCell>
        <mxCell id="OWdNk56Qyckdl0vmcLq8-158" value="TcpServer" style="swimlane;whiteSpace=wrap;html=1;fillColor=#fff2cc;strokeColor=#d6b656;startSize=40;" parent="1" vertex="1">
          <mxGeometry x="40" y="1080" width="240" height="120" as="geometry" />
        </mxCell>
        <mxCell id="OWdNk56Qyckdl0vmcLq8-159" value="See Base_net_TcpServer" style="text;html=1;align=center;verticalAlign=middle;resizable=0;points=[];autosize=1;strokeColor=none;fillColor=none;" parent="OWdNk56Qyckdl0vmcLq8-158" vertex="1">
          <mxGeometry x="40" y="60" width="160" height="30" as="geometry" />
        </mxCell>
        <mxCell id="OWdNk56Qyckdl0vmcLq8-160" style="edgeStyle=orthogonalEdgeStyle;rounded=0;orthogonalLoop=1;jettySize=auto;html=1;exitX=0;exitY=0.5;exitDx=0;exitDy=0;entryX=0.5;entryY=0;entryDx=0;entryDy=0;fillColor=#fff2cc;strokeColor=#d6b656;" parent="1" source="OWdNk56Qyckdl0vmcLq8-130" target="OWdNk56Qyckdl0vmcLq8-158" edge="1">
          <mxGeometry relative="1" as="geometry" />
        </mxCell>
        <mxCell id="OWdNk56Qyckdl0vmcLq8-161" value="vector&amp;lt;eventLoopThread&#39;s thread id&amp;gt;" style="rounded=0;whiteSpace=wrap;html=1;" parent="1" vertex="1">
          <mxGeometry x="40" y="1240" width="240" height="40" as="geometry" />
        </mxCell>
        <mxCell id="OWdNk56Qyckdl0vmcLq8-162" style="edgeStyle=orthogonalEdgeStyle;rounded=0;orthogonalLoop=1;jettySize=auto;html=1;exitX=0;exitY=0.5;exitDx=0;exitDy=0;entryX=1;entryY=0.5;entryDx=0;entryDy=0;" parent="1" source="OWdNk56Qyckdl0vmcLq8-131" target="OWdNk56Qyckdl0vmcLq8-161" edge="1">
          <mxGeometry relative="1" as="geometry" />
        </mxCell>
        <mxCell id="OWdNk56Qyckdl0vmcLq8-163" value="RSBrokerHelper" style="swimlane;whiteSpace=wrap;html=1;startSize=40;fillColor=#fff2cc;strokeColor=#d6b656;" parent="1" vertex="1">
          <mxGeometry x="340" y="1200" width="240" height="820" as="geometry" />
        </mxCell>
        <mxCell id="OWdNk56Qyckdl0vmcLq8-165" value="push()" style="rounded=0;whiteSpace=wrap;html=1;" parent="OWdNk56Qyckdl0vmcLq8-163" vertex="1">
          <mxGeometry x="40" y="80" width="160" height="40" as="geometry" />
        </mxCell>
        <mxCell id="OWdNk56Qyckdl0vmcLq8-166" value="pull()" style="rounded=0;whiteSpace=wrap;html=1;" parent="OWdNk56Qyckdl0vmcLq8-163" vertex="1">
          <mxGeometry x="40" y="140" width="160" height="40" as="geometry" />
        </mxCell>
        <mxCell id="OWdNk56Qyckdl0vmcLq8-167" value="createGroup()" style="rounded=0;whiteSpace=wrap;html=1;" parent="OWdNk56Qyckdl0vmcLq8-163" vertex="1">
          <mxGeometry x="40" y="200" width="160" height="40" as="geometry" />
        </mxCell>
        <mxCell id="OWdNk56Qyckdl0vmcLq8-168" value="ack()" style="rounded=0;whiteSpace=wrap;html=1;" parent="OWdNk56Qyckdl0vmcLq8-163" vertex="1">
          <mxGeometry x="40" y="260" width="160" height="40" as="geometry" />
        </mxCell>
        <mxCell id="OWdNk56Qyckdl0vmcLq8-169" value="getPending()" style="rounded=0;whiteSpace=wrap;html=1;" parent="OWdNk56Qyckdl0vmcLq8-163" vertex="1">
          <mxGeometry x="40" y="320" width="160" height="40" as="geometry" />
        </mxCell>
        <mxCell id="OWdNk56Qyckdl0vmcLq8-170" value="getGroupsInfo()" style="rounded=0;whiteSpace=wrap;html=1;" parent="OWdNk56Qyckdl0vmcLq8-163" vertex="1">
          <mxGeometry x="40" y="380" width="160" height="40" as="geometry" />
        </mxCell>
        <mxCell id="OWdNk56Qyckdl0vmcLq8-171" value="getConsumersInfo()" style="rounded=0;whiteSpace=wrap;html=1;" parent="OWdNk56Qyckdl0vmcLq8-163" vertex="1">
          <mxGeometry x="40" y="440" width="160" height="40" as="geometry" />
        </mxCell>
        <mxCell id="OWdNk56Qyckdl0vmcLq8-172" value="del()" style="rounded=0;whiteSpace=wrap;html=1;" parent="OWdNk56Qyckdl0vmcLq8-163" vertex="1">
          <mxGeometry x="40" y="500" width="160" height="40" as="geometry" />
        </mxCell>
        <mxCell id="OWdNk56Qyckdl0vmcLq8-173" value="claim()" style="rounded=0;whiteSpace=wrap;html=1;" parent="OWdNk56Qyckdl0vmcLq8-163" vertex="1">
          <mxGeometry x="40" y="560" width="160" height="40" as="geometry" />
        </mxCell>
        <mxCell id="OWdNk56Qyckdl0vmcLq8-174" value="getPreviousID()" style="rounded=0;whiteSpace=wrap;html=1;" parent="OWdNk56Qyckdl0vmcLq8-163" vertex="1">
          <mxGeometry x="40" y="620" width="160" height="40" as="geometry" />
        </mxCell>
        <mxCell id="OWdNk56Qyckdl0vmcLq8-175" value="sortedAdd()" style="rounded=0;whiteSpace=wrap;html=1;" parent="OWdNk56Qyckdl0vmcLq8-163" vertex="1">
          <mxGeometry x="40" y="680" width="160" height="40" as="geometry" />
        </mxCell>
        <mxCell id="OWdNk56Qyckdl0vmcLq8-176" value="sortedRemove()" style="rounded=0;whiteSpace=wrap;html=1;" parent="OWdNk56Qyckdl0vmcLq8-163" vertex="1">
          <mxGeometry x="40" y="740" width="160" height="40" as="geometry" />
        </mxCell>
        <mxCell id="OWdNk56Qyckdl0vmcLq8-177" style="edgeStyle=orthogonalEdgeStyle;rounded=0;orthogonalLoop=1;jettySize=auto;html=1;exitX=1;exitY=0.5;exitDx=0;exitDy=0;entryX=0.5;entryY=0;entryDx=0;entryDy=0;fillColor=#fff2cc;strokeColor=#d6b656;" parent="1" source="OWdNk56Qyckdl0vmcLq8-132" target="OWdNk56Qyckdl0vmcLq8-163" edge="1">
          <mxGeometry relative="1" as="geometry">
            <Array as="points">
              <mxPoint x="460" y="860" />
              <mxPoint x="460" y="1080" />
            </Array>
          </mxGeometry>
        </mxCell>
        <mxCell id="OWdNk56Qyckdl0vmcLq8-178" value="LoginMessageOp" style="swimlane;whiteSpace=wrap;html=1;startSize=40;fillColor=#fff2cc;strokeColor=#d6b656;" parent="1" vertex="1">
          <mxGeometry x="640" y="1000" width="240" height="300" as="geometry" />
        </mxCell>
        <mxCell id="OWdNk56Qyckdl0vmcLq8-179" value="registerMessageType()" style="rounded=0;whiteSpace=wrap;html=1;" parent="OWdNk56Qyckdl0vmcLq8-178" vertex="1">
          <mxGeometry x="40" y="80" width="160" height="40" as="geometry" />
        </mxCell>
        <mxCell id="OWdNk56Qyckdl0vmcLq8-180" value="messageFunc()" style="rounded=0;whiteSpace=wrap;html=1;" parent="OWdNk56Qyckdl0vmcLq8-178" vertex="1">
          <mxGeometry x="40" y="140" width="160" height="40" as="geometry" />
        </mxCell>
        <mxCell id="OWdNk56Qyckdl0vmcLq8-192" value="mMessageTypes" style="rounded=1;whiteSpace=wrap;html=1;arcSize=46;" parent="OWdNk56Qyckdl0vmcLq8-178" vertex="1">
          <mxGeometry x="60" y="220" width="120" height="40" as="geometry" />
        </mxCell>
        <mxCell id="OWdNk56Qyckdl0vmcLq8-191" style="edgeStyle=orthogonalEdgeStyle;rounded=0;orthogonalLoop=1;jettySize=auto;html=1;exitX=1;exitY=0.5;exitDx=0;exitDy=0;entryX=0.5;entryY=0;entryDx=0;entryDy=0;fillColor=#fff2cc;strokeColor=#d6b656;" parent="1" source="OWdNk56Qyckdl0vmcLq8-133" target="OWdNk56Qyckdl0vmcLq8-178" edge="1">
          <mxGeometry relative="1" as="geometry">
            <Array as="points">
              <mxPoint x="480" y="920" />
              <mxPoint x="480" y="960" />
              <mxPoint x="760" y="960" />
            </Array>
          </mxGeometry>
        </mxCell>
        <mxCell id="OWdNk56Qyckdl0vmcLq8-190" value="" style="rounded=0;whiteSpace=wrap;html=1;" parent="1" vertex="1">
          <mxGeometry x="680" y="1360" width="540" height="80" as="geometry" />
        </mxCell>
        <mxCell id="OWdNk56Qyckdl0vmcLq8-198" style="edgeStyle=orthogonalEdgeStyle;rounded=0;orthogonalLoop=1;jettySize=auto;html=1;exitX=1;exitY=0.5;exitDx=0;exitDy=0;entryX=0;entryY=0.5;entryDx=0;entryDy=0;" parent="1" source="OWdNk56Qyckdl0vmcLq8-193" target="OWdNk56Qyckdl0vmcLq8-194" edge="1">
          <mxGeometry relative="1" as="geometry" />
        </mxCell>
        <mxCell id="OWdNk56Qyckdl0vmcLq8-193" value="thread::id" style="rounded=0;whiteSpace=wrap;html=1;" parent="1" vertex="1">
          <mxGeometry x="700" y="1370" width="80" height="60" as="geometry" />
        </mxCell>
        <mxCell id="OWdNk56Qyckdl0vmcLq8-194" value="" style="rounded=0;whiteSpace=wrap;html=1;" parent="1" vertex="1">
          <mxGeometry x="800" y="1370" width="400" height="60" as="geometry" />
        </mxCell>
        <mxCell id="OWdNk56Qyckdl0vmcLq8-199" style="edgeStyle=orthogonalEdgeStyle;rounded=0;orthogonalLoop=1;jettySize=auto;html=1;exitX=1;exitY=0.5;exitDx=0;exitDy=0;entryX=0;entryY=0.5;entryDx=0;entryDy=0;" parent="1" source="OWdNk56Qyckdl0vmcLq8-195" target="OWdNk56Qyckdl0vmcLq8-196" edge="1">
          <mxGeometry relative="1" as="geometry" />
        </mxCell>
        <mxCell id="OWdNk56Qyckdl0vmcLq8-195" value="MSG_NAME" style="rounded=0;whiteSpace=wrap;html=1;" parent="1" vertex="1">
          <mxGeometry x="810" y="1380" width="80" height="40" as="geometry" />
        </mxCell>
        <mxCell id="OWdNk56Qyckdl0vmcLq8-221" style="edgeStyle=orthogonalEdgeStyle;rounded=0;orthogonalLoop=1;jettySize=auto;html=1;exitX=0.5;exitY=1;exitDx=0;exitDy=0;entryX=0.5;entryY=0;entryDx=0;entryDy=0;" parent="1" source="OWdNk56Qyckdl0vmcLq8-196" target="OWdNk56Qyckdl0vmcLq8-201" edge="1">
          <mxGeometry relative="1" as="geometry" />
        </mxCell>
        <mxCell id="OWdNk56Qyckdl0vmcLq8-196" value="unique_ptr&amp;lt;message::TimestampMessage&amp;gt;" style="rounded=0;whiteSpace=wrap;html=1;" parent="1" vertex="1">
          <mxGeometry x="920" y="1380" width="260" height="40" as="geometry" />
        </mxCell>
        <mxCell id="OWdNk56Qyckdl0vmcLq8-200" style="edgeStyle=orthogonalEdgeStyle;rounded=0;orthogonalLoop=1;jettySize=auto;html=1;exitX=1;exitY=0.5;exitDx=0;exitDy=0;entryX=0.5;entryY=0;entryDx=0;entryDy=0;" parent="1" source="OWdNk56Qyckdl0vmcLq8-192" target="OWdNk56Qyckdl0vmcLq8-190" edge="1">
          <mxGeometry relative="1" as="geometry" />
        </mxCell>
        <mxCell id="OWdNk56Qyckdl0vmcLq8-201" value="BaseMessage" style="swimlane;whiteSpace=wrap;html=1;fillColor=#fff2cc;strokeColor=#d6b656;startSize=40;" parent="1" vertex="1">
          <mxGeometry x="760" y="1520" width="360" height="900" as="geometry" />
        </mxCell>
        <mxCell id="OWdNk56Qyckdl0vmcLq8-208" value="count()" style="rounded=0;whiteSpace=wrap;html=1;" parent="OWdNk56Qyckdl0vmcLq8-201" vertex="1">
          <mxGeometry x="40" y="80" width="280" height="40" as="geometry" />
        </mxCell>
        <mxCell id="OWdNk56Qyckdl0vmcLq8-209" value="serialize()" style="rounded=0;whiteSpace=wrap;html=1;" parent="OWdNk56Qyckdl0vmcLq8-201" vertex="1">
          <mxGeometry x="40" y="140" width="280" height="40" as="geometry" />
        </mxCell>
        <mxCell id="OWdNk56Qyckdl0vmcLq8-210" value="deserialize()" style="rounded=0;whiteSpace=wrap;html=1;" parent="OWdNk56Qyckdl0vmcLq8-201" vertex="1">
          <mxGeometry x="40" y="200" width="280" height="40" as="geometry" />
        </mxCell>
        <mxCell id="OWdNk56Qyckdl0vmcLq8-211" value="countHelper()" style="rounded=0;whiteSpace=wrap;html=1;" parent="OWdNk56Qyckdl0vmcLq8-201" vertex="1">
          <mxGeometry x="40" y="260" width="280" height="40" as="geometry" />
        </mxCell>
        <mxCell id="OWdNk56Qyckdl0vmcLq8-212" value="serializeHelper()" style="rounded=0;whiteSpace=wrap;html=1;" parent="OWdNk56Qyckdl0vmcLq8-201" vertex="1">
          <mxGeometry x="40" y="320" width="280" height="40" as="geometry" />
        </mxCell>
        <mxCell id="OWdNk56Qyckdl0vmcLq8-213" value="deserializeHelper()" style="rounded=0;whiteSpace=wrap;html=1;" parent="OWdNk56Qyckdl0vmcLq8-201" vertex="1">
          <mxGeometry x="40" y="380" width="280" height="40" as="geometry" />
        </mxCell>
        <mxCell id="OWdNk56Qyckdl0vmcLq8-214" value="countCapacity()" style="rounded=0;whiteSpace=wrap;html=1;" parent="OWdNk56Qyckdl0vmcLq8-201" vertex="1">
          <mxGeometry x="40" y="440" width="280" height="40" as="geometry" />
        </mxCell>
        <mxCell id="OWdNk56Qyckdl0vmcLq8-215" value="countLength()" style="rounded=0;whiteSpace=wrap;html=1;" parent="OWdNk56Qyckdl0vmcLq8-201" vertex="1">
          <mxGeometry x="40" y="500" width="280" height="40" as="geometry" />
        </mxCell>
        <mxCell id="OWdNk56Qyckdl0vmcLq8-216" value="pushMembers()" style="rounded=0;whiteSpace=wrap;html=1;" parent="OWdNk56Qyckdl0vmcLq8-201" vertex="1">
          <mxGeometry x="40" y="560" width="280" height="40" as="geometry" />
        </mxCell>
        <mxCell id="OWdNk56Qyckdl0vmcLq8-217" value="pushMember()" style="rounded=0;whiteSpace=wrap;html=1;" parent="OWdNk56Qyckdl0vmcLq8-201" vertex="1">
          <mxGeometry x="40" y="620" width="280" height="40" as="geometry" />
        </mxCell>
        <mxCell id="OWdNk56Qyckdl0vmcLq8-218" value="popMembers()" style="rounded=0;whiteSpace=wrap;html=1;" parent="OWdNk56Qyckdl0vmcLq8-201" vertex="1">
          <mxGeometry x="40" y="680" width="280" height="40" as="geometry" />
        </mxCell>
        <mxCell id="OWdNk56Qyckdl0vmcLq8-219" value="popMember()" style="rounded=0;whiteSpace=wrap;html=1;" parent="OWdNk56Qyckdl0vmcLq8-201" vertex="1">
          <mxGeometry x="40" y="740" width="280" height="40" as="geometry" />
        </mxCell>
        <mxCell id="OWdNk56Qyckdl0vmcLq8-207" value="MSG_NAME" style="rounded=1;whiteSpace=wrap;html=1;arcSize=46;" parent="OWdNk56Qyckdl0vmcLq8-201" vertex="1">
          <mxGeometry x="80" y="820" width="200" height="40" as="geometry" />
        </mxCell>
        <mxCell id="OWdNk56Qyckdl0vmcLq8-202" value="TimestampMessage" style="swimlane;whiteSpace=wrap;html=1;fillColor=#fff2cc;strokeColor=#d6b656;startSize=40;" parent="1" vertex="1">
          <mxGeometry x="760" y="2420" width="360" height="160" as="geometry" />
        </mxCell>
        <mxCell id="OWdNk56Qyckdl0vmcLq8-206" value="GET_MILLISECONDS_SINCE_EPOCH()" style="rounded=0;whiteSpace=wrap;html=1;" parent="OWdNk56Qyckdl0vmcLq8-202" vertex="1">
          <mxGeometry x="40" y="80" width="280" height="40" as="geometry" />
        </mxCell>
        <mxCell id="OWdNk56Qyckdl0vmcLq8-203" value="LoginMessage" style="swimlane;whiteSpace=wrap;html=1;fillColor=#fff2cc;strokeColor=#d6b656;startSize=40;" parent="1" vertex="1">
          <mxGeometry x="760" y="2580" width="120" height="180" as="geometry" />
        </mxCell>
        <mxCell id="OWdNk56Qyckdl0vmcLq8-253" value="" style="rounded=0;whiteSpace=wrap;html=1;" parent="OWdNk56Qyckdl0vmcLq8-203" vertex="1">
          <mxGeometry x="12.5" y="60" width="90" height="40" as="geometry" />
        </mxCell>
        <mxCell id="OWdNk56Qyckdl0vmcLq8-254" value="" style="shape=waypoint;sketch=0;size=6;pointerEvents=1;points=[];fillColor=none;resizable=0;rotatable=0;perimeter=centerPerimeter;snapToPoint=1;" parent="OWdNk56Qyckdl0vmcLq8-203" vertex="1">
          <mxGeometry x="27.5" y="70" width="20" height="20" as="geometry" />
        </mxCell>
        <mxCell id="OWdNk56Qyckdl0vmcLq8-255" value="" style="shape=waypoint;sketch=0;size=6;pointerEvents=1;points=[];fillColor=none;resizable=0;rotatable=0;perimeter=centerPerimeter;snapToPoint=1;" parent="OWdNk56Qyckdl0vmcLq8-203" vertex="1">
          <mxGeometry x="47.5" y="70" width="20" height="20" as="geometry" />
        </mxCell>
        <mxCell id="OWdNk56Qyckdl0vmcLq8-256" value="" style="shape=waypoint;sketch=0;size=6;pointerEvents=1;points=[];fillColor=none;resizable=0;rotatable=0;perimeter=centerPerimeter;snapToPoint=1;" parent="OWdNk56Qyckdl0vmcLq8-203" vertex="1">
          <mxGeometry x="67.5" y="70" width="20" height="20" as="geometry" />
        </mxCell>
        <mxCell id="OWdNk56Qyckdl0vmcLq8-257" value="" style="rounded=1;whiteSpace=wrap;html=1;arcSize=46;" parent="OWdNk56Qyckdl0vmcLq8-203" vertex="1">
          <mxGeometry x="12.5" y="120" width="95" height="40" as="geometry" />
        </mxCell>
        <mxCell id="OWdNk56Qyckdl0vmcLq8-258" value="" style="shape=waypoint;sketch=0;size=6;pointerEvents=1;points=[];fillColor=none;resizable=0;rotatable=0;perimeter=centerPerimeter;snapToPoint=1;" parent="OWdNk56Qyckdl0vmcLq8-203" vertex="1">
          <mxGeometry x="30" y="130" width="20" height="20" as="geometry" />
        </mxCell>
        <mxCell id="OWdNk56Qyckdl0vmcLq8-259" value="" style="shape=waypoint;sketch=0;size=6;pointerEvents=1;points=[];fillColor=none;resizable=0;rotatable=0;perimeter=centerPerimeter;snapToPoint=1;" parent="OWdNk56Qyckdl0vmcLq8-203" vertex="1">
          <mxGeometry x="50" y="130" width="20" height="20" as="geometry" />
        </mxCell>
        <mxCell id="OWdNk56Qyckdl0vmcLq8-260" value="" style="shape=waypoint;sketch=0;size=6;pointerEvents=1;points=[];fillColor=none;resizable=0;rotatable=0;perimeter=centerPerimeter;snapToPoint=1;" parent="OWdNk56Qyckdl0vmcLq8-203" vertex="1">
          <mxGeometry x="70" y="130" width="20" height="20" as="geometry" />
        </mxCell>
        <mxCell id="OWdNk56Qyckdl0vmcLq8-204" value="GatewayMessage" style="swimlane;whiteSpace=wrap;html=1;fillColor=#fff2cc;strokeColor=#d6b656;startSize=40;" parent="1" vertex="1">
          <mxGeometry x="880" y="2580" width="120" height="180" as="geometry" />
        </mxCell>
        <mxCell id="OWdNk56Qyckdl0vmcLq8-236" value="" style="rounded=0;whiteSpace=wrap;html=1;" parent="OWdNk56Qyckdl0vmcLq8-204" vertex="1">
          <mxGeometry x="15" y="60" width="90" height="40" as="geometry" />
        </mxCell>
        <mxCell id="OWdNk56Qyckdl0vmcLq8-238" value="" style="shape=waypoint;sketch=0;size=6;pointerEvents=1;points=[];fillColor=none;resizable=0;rotatable=0;perimeter=centerPerimeter;snapToPoint=1;" parent="OWdNk56Qyckdl0vmcLq8-204" vertex="1">
          <mxGeometry x="30" y="70" width="20" height="20" as="geometry" />
        </mxCell>
        <mxCell id="OWdNk56Qyckdl0vmcLq8-239" value="" style="shape=waypoint;sketch=0;size=6;pointerEvents=1;points=[];fillColor=none;resizable=0;rotatable=0;perimeter=centerPerimeter;snapToPoint=1;" parent="OWdNk56Qyckdl0vmcLq8-204" vertex="1">
          <mxGeometry x="50" y="70" width="20" height="20" as="geometry" />
        </mxCell>
        <mxCell id="OWdNk56Qyckdl0vmcLq8-240" value="" style="shape=waypoint;sketch=0;size=6;pointerEvents=1;points=[];fillColor=none;resizable=0;rotatable=0;perimeter=centerPerimeter;snapToPoint=1;" parent="OWdNk56Qyckdl0vmcLq8-204" vertex="1">
          <mxGeometry x="70" y="70" width="20" height="20" as="geometry" />
        </mxCell>
        <mxCell id="OWdNk56Qyckdl0vmcLq8-205" value="GameMessage" style="swimlane;whiteSpace=wrap;html=1;fillColor=#fff2cc;strokeColor=#d6b656;startSize=40;" parent="1" vertex="1">
          <mxGeometry x="1000" y="2580" width="120" height="180" as="geometry" />
        </mxCell>
        <mxCell id="OWdNk56Qyckdl0vmcLq8-237" value="" style="rounded=1;whiteSpace=wrap;html=1;arcSize=46;" parent="OWdNk56Qyckdl0vmcLq8-205" vertex="1">
          <mxGeometry x="-105" y="120" width="95" height="40" as="geometry" />
        </mxCell>
        <mxCell id="OWdNk56Qyckdl0vmcLq8-241" value="" style="shape=waypoint;sketch=0;size=6;pointerEvents=1;points=[];fillColor=none;resizable=0;rotatable=0;perimeter=centerPerimeter;snapToPoint=1;" parent="OWdNk56Qyckdl0vmcLq8-205" vertex="1">
          <mxGeometry x="-87.5" y="130" width="20" height="20" as="geometry" />
        </mxCell>
        <mxCell id="OWdNk56Qyckdl0vmcLq8-242" value="" style="shape=waypoint;sketch=0;size=6;pointerEvents=1;points=[];fillColor=none;resizable=0;rotatable=0;perimeter=centerPerimeter;snapToPoint=1;" parent="OWdNk56Qyckdl0vmcLq8-205" vertex="1">
          <mxGeometry x="-67.5" y="130" width="20" height="20" as="geometry" />
        </mxCell>
        <mxCell id="OWdNk56Qyckdl0vmcLq8-243" value="" style="shape=waypoint;sketch=0;size=6;pointerEvents=1;points=[];fillColor=none;resizable=0;rotatable=0;perimeter=centerPerimeter;snapToPoint=1;" parent="OWdNk56Qyckdl0vmcLq8-205" vertex="1">
          <mxGeometry x="-47.5" y="130" width="20" height="20" as="geometry" />
        </mxCell>
        <mxCell id="OWdNk56Qyckdl0vmcLq8-245" value="" style="rounded=0;whiteSpace=wrap;html=1;" parent="OWdNk56Qyckdl0vmcLq8-205" vertex="1">
          <mxGeometry x="12.5" y="60" width="90" height="40" as="geometry" />
        </mxCell>
        <mxCell id="OWdNk56Qyckdl0vmcLq8-246" value="" style="shape=waypoint;sketch=0;size=6;pointerEvents=1;points=[];fillColor=none;resizable=0;rotatable=0;perimeter=centerPerimeter;snapToPoint=1;" parent="OWdNk56Qyckdl0vmcLq8-205" vertex="1">
          <mxGeometry x="27.5" y="70" width="20" height="20" as="geometry" />
        </mxCell>
        <mxCell id="OWdNk56Qyckdl0vmcLq8-247" value="" style="shape=waypoint;sketch=0;size=6;pointerEvents=1;points=[];fillColor=none;resizable=0;rotatable=0;perimeter=centerPerimeter;snapToPoint=1;" parent="OWdNk56Qyckdl0vmcLq8-205" vertex="1">
          <mxGeometry x="47.5" y="70" width="20" height="20" as="geometry" />
        </mxCell>
        <mxCell id="OWdNk56Qyckdl0vmcLq8-248" value="" style="shape=waypoint;sketch=0;size=6;pointerEvents=1;points=[];fillColor=none;resizable=0;rotatable=0;perimeter=centerPerimeter;snapToPoint=1;" parent="OWdNk56Qyckdl0vmcLq8-205" vertex="1">
          <mxGeometry x="67.5" y="70" width="20" height="20" as="geometry" />
        </mxCell>
        <mxCell id="OWdNk56Qyckdl0vmcLq8-249" value="" style="rounded=1;whiteSpace=wrap;html=1;arcSize=46;" parent="OWdNk56Qyckdl0vmcLq8-205" vertex="1">
          <mxGeometry x="12.5" y="120" width="95" height="40" as="geometry" />
        </mxCell>
        <mxCell id="OWdNk56Qyckdl0vmcLq8-250" value="" style="shape=waypoint;sketch=0;size=6;pointerEvents=1;points=[];fillColor=none;resizable=0;rotatable=0;perimeter=centerPerimeter;snapToPoint=1;" parent="OWdNk56Qyckdl0vmcLq8-205" vertex="1">
          <mxGeometry x="30" y="130" width="20" height="20" as="geometry" />
        </mxCell>
        <mxCell id="OWdNk56Qyckdl0vmcLq8-251" value="" style="shape=waypoint;sketch=0;size=6;pointerEvents=1;points=[];fillColor=none;resizable=0;rotatable=0;perimeter=centerPerimeter;snapToPoint=1;" parent="OWdNk56Qyckdl0vmcLq8-205" vertex="1">
          <mxGeometry x="50" y="130" width="20" height="20" as="geometry" />
        </mxCell>
        <mxCell id="OWdNk56Qyckdl0vmcLq8-252" value="" style="shape=waypoint;sketch=0;size=6;pointerEvents=1;points=[];fillColor=none;resizable=0;rotatable=0;perimeter=centerPerimeter;snapToPoint=1;" parent="OWdNk56Qyckdl0vmcLq8-205" vertex="1">
          <mxGeometry x="70" y="130" width="20" height="20" as="geometry" />
        </mxCell>
        <mxCell id="OWdNk56Qyckdl0vmcLq8-222" value="count message struct&#39;s size" style="shape=document;whiteSpace=wrap;html=1;boundedLbl=1;fillColor=#dae8fc;strokeColor=#6c8ebf;" parent="1" vertex="1">
          <mxGeometry x="1200" y="1680" width="200" height="60" as="geometry" />
        </mxCell>
        <mxCell id="OWdNk56Qyckdl0vmcLq8-223" style="edgeStyle=orthogonalEdgeStyle;rounded=0;orthogonalLoop=1;jettySize=auto;html=1;exitX=1;exitY=0.5;exitDx=0;exitDy=0;entryX=0;entryY=0.5;entryDx=0;entryDy=0;fillColor=#dae8fc;strokeColor=#6c8ebf;" parent="1" source="OWdNk56Qyckdl0vmcLq8-208" target="OWdNk56Qyckdl0vmcLq8-222" edge="1">
          <mxGeometry relative="1" as="geometry">
            <Array as="points">
              <mxPoint x="1180" y="1620" />
              <mxPoint x="1180" y="1710" />
            </Array>
          </mxGeometry>
        </mxCell>
        <mxCell id="OWdNk56Qyckdl0vmcLq8-224" value="serialize message struct" style="shape=document;whiteSpace=wrap;html=1;boundedLbl=1;fillColor=#dae8fc;strokeColor=#6c8ebf;" parent="1" vertex="1">
          <mxGeometry x="1200" y="1760" width="200" height="60" as="geometry" />
        </mxCell>
        <mxCell id="OWdNk56Qyckdl0vmcLq8-225" value="deserialize message struct" style="shape=document;whiteSpace=wrap;html=1;boundedLbl=1;fillColor=#dae8fc;strokeColor=#6c8ebf;" parent="1" vertex="1">
          <mxGeometry x="1200" y="1840" width="200" height="60" as="geometry" />
        </mxCell>
        <mxCell id="OWdNk56Qyckdl0vmcLq8-226" style="edgeStyle=orthogonalEdgeStyle;rounded=0;orthogonalLoop=1;jettySize=auto;html=1;exitX=1;exitY=0.5;exitDx=0;exitDy=0;entryX=0;entryY=0.5;entryDx=0;entryDy=0;fillColor=#dae8fc;strokeColor=#6c8ebf;" parent="1" source="OWdNk56Qyckdl0vmcLq8-209" target="OWdNk56Qyckdl0vmcLq8-224" edge="1">
          <mxGeometry relative="1" as="geometry">
            <Array as="points">
              <mxPoint x="1160" y="1680" />
              <mxPoint x="1160" y="1790" />
            </Array>
          </mxGeometry>
        </mxCell>
        <mxCell id="OWdNk56Qyckdl0vmcLq8-227" style="edgeStyle=orthogonalEdgeStyle;rounded=0;orthogonalLoop=1;jettySize=auto;html=1;exitX=1;exitY=0.5;exitDx=0;exitDy=0;entryX=0;entryY=0.5;entryDx=0;entryDy=0;fillColor=#dae8fc;strokeColor=#6c8ebf;" parent="1" source="OWdNk56Qyckdl0vmcLq8-210" target="OWdNk56Qyckdl0vmcLq8-225" edge="1">
          <mxGeometry relative="1" as="geometry" />
        </mxCell>
        <mxCell id="OWdNk56Qyckdl0vmcLq8-261" value="mMessageTypes[thread id].emplace(msgName, make_unique&amp;lt;message::TimestampMessage&amp;gt;)" style="shape=document;whiteSpace=wrap;html=1;boundedLbl=1;fillColor=#dae8fc;strokeColor=#6c8ebf;" parent="1" vertex="1">
          <mxGeometry x="960" y="1040" width="520" height="60" as="geometry" />
        </mxCell>
        <mxCell id="OWdNk56Qyckdl0vmcLq8-262" style="edgeStyle=orthogonalEdgeStyle;rounded=0;orthogonalLoop=1;jettySize=auto;html=1;exitX=1;exitY=0.5;exitDx=0;exitDy=0;entryX=0;entryY=0.5;entryDx=0;entryDy=0;fillColor=#dae8fc;strokeColor=#6c8ebf;" parent="1" source="OWdNk56Qyckdl0vmcLq8-179" target="OWdNk56Qyckdl0vmcLq8-261" edge="1">
          <mxGeometry relative="1" as="geometry" />
        </mxCell>
        <mxCell id="OWdNk56Qyckdl0vmcLq8-263" value="thread&#39;s id = thread::get_id()&lt;br&gt;msg&#39;s len = tcpConnptr-&amp;gt;tryGet(sizeof(size_t))&lt;br&gt;msg = tcpConnptr-&amp;gt;tryGet(msg&#39;s len)&lt;br&gt;msg struct = mMessageTypes[thread&#39;s id][msg&#39;s MSG_NAME]-&amp;gt;deserialize()&lt;br&gt;handle msg struct" style="shape=document;whiteSpace=wrap;html=1;boundedLbl=1;fillColor=#dae8fc;strokeColor=#6c8ebf;" parent="1" vertex="1">
          <mxGeometry x="1000" y="1120" width="440" height="120" as="geometry" />
        </mxCell>
        <mxCell id="OWdNk56Qyckdl0vmcLq8-264" style="edgeStyle=orthogonalEdgeStyle;rounded=0;orthogonalLoop=1;jettySize=auto;html=1;exitX=1;exitY=0.5;exitDx=0;exitDy=0;entryX=0;entryY=0.5;entryDx=0;entryDy=0;fillColor=#dae8fc;strokeColor=#6c8ebf;" parent="1" source="OWdNk56Qyckdl0vmcLq8-180" target="OWdNk56Qyckdl0vmcLq8-263" edge="1">
          <mxGeometry relative="1" as="geometry" />
        </mxCell>
        <mxCell id="OWdNk56Qyckdl0vmcLq8-266" value="GatewayServer" style="swimlane;whiteSpace=wrap;html=1;startSize=40;fillColor=#0050ef;fontColor=#ffffff;strokeColor=#001DBC;" parent="1" vertex="1">
          <mxGeometry x="2040" y="120" width="240" height="720" as="geometry" />
        </mxCell>
        <mxCell id="OWdNk56Qyckdl0vmcLq8-267" value="Similar to&amp;nbsp;LoginServer" style="rounded=0;whiteSpace=wrap;html=1;" parent="OWdNk56Qyckdl0vmcLq8-266" vertex="1">
          <mxGeometry x="40" y="80" width="160" height="40" as="geometry" />
        </mxCell>
        <mxCell id="OWdNk56Qyckdl0vmcLq8-268" value="initKey()" style="rounded=0;whiteSpace=wrap;html=1;" parent="OWdNk56Qyckdl0vmcLq8-266" vertex="1">
          <mxGeometry x="40" y="140" width="160" height="40" as="geometry" />
        </mxCell>
        <mxCell id="OWdNk56Qyckdl0vmcLq8-269" value="registerService()" style="rounded=0;whiteSpace=wrap;html=1;" parent="OWdNk56Qyckdl0vmcLq8-266" vertex="1">
          <mxGeometry x="40" y="200" width="160" height="40" as="geometry" />
        </mxCell>
        <mxCell id="OWdNk56Qyckdl0vmcLq8-270" value="onMessageFunc()" style="rounded=0;whiteSpace=wrap;html=1;" parent="OWdNk56Qyckdl0vmcLq8-266" vertex="1">
          <mxGeometry x="40" y="260" width="160" height="40" as="geometry" />
        </mxCell>
        <mxCell id="OWdNk56Qyckdl0vmcLq8-271" value="onPMessageFunc()" style="rounded=0;whiteSpace=wrap;html=1;" parent="OWdNk56Qyckdl0vmcLq8-266" vertex="1">
          <mxGeometry x="40" y="320" width="160" height="40" as="geometry" />
        </mxCell>
        <mxCell id="OWdNk56Qyckdl0vmcLq8-272" value="onMetaFunc()" style="rounded=0;whiteSpace=wrap;html=1;" parent="OWdNk56Qyckdl0vmcLq8-266" vertex="1">
          <mxGeometry x="40" y="380" width="160" height="40" as="geometry" />
        </mxCell>
        <mxCell id="OWdNk56Qyckdl0vmcLq8-273" value="PSConsumerFunc()" style="rounded=0;whiteSpace=wrap;html=1;" parent="OWdNk56Qyckdl0vmcLq8-266" vertex="1">
          <mxGeometry x="40" y="440" width="160" height="40" as="geometry" />
        </mxCell>
        <mxCell id="OWdNk56Qyckdl0vmcLq8-275" value="Similar to LoginServer" style="rounded=1;whiteSpace=wrap;html=1;arcSize=46;" parent="OWdNk56Qyckdl0vmcLq8-266" vertex="1">
          <mxGeometry x="40" y="520" width="160" height="40" as="geometry" />
        </mxCell>
        <mxCell id="OWdNk56Qyckdl0vmcLq8-276" value="mServRegRedis" style="rounded=1;whiteSpace=wrap;html=1;arcSize=46;" parent="OWdNk56Qyckdl0vmcLq8-266" vertex="1">
          <mxGeometry x="60" y="580" width="120" height="40" as="geometry" />
        </mxCell>
        <mxCell id="OWdNk56Qyckdl0vmcLq8-277" value="mSub" style="rounded=1;whiteSpace=wrap;html=1;arcSize=46;" parent="OWdNk56Qyckdl0vmcLq8-266" vertex="1">
          <mxGeometry x="60" y="640" width="120" height="40" as="geometry" />
        </mxCell>
        <mxCell id="OWdNk56Qyckdl0vmcLq8-281" value="init service&#39;s key" style="shape=document;whiteSpace=wrap;html=1;boundedLbl=1;fillColor=#dae8fc;strokeColor=#6c8ebf;" parent="1" vertex="1">
          <mxGeometry x="2400" y="200" width="240" height="60" as="geometry" />
        </mxCell>
        <mxCell id="OWdNk56Qyckdl0vmcLq8-282" style="edgeStyle=orthogonalEdgeStyle;rounded=0;orthogonalLoop=1;jettySize=auto;html=1;exitX=1;exitY=0.5;exitDx=0;exitDy=0;entryX=0;entryY=0.5;entryDx=0;entryDy=0;fillColor=#dae8fc;strokeColor=#6c8ebf;" parent="1" source="OWdNk56Qyckdl0vmcLq8-268" target="OWdNk56Qyckdl0vmcLq8-281" edge="1">
          <mxGeometry relative="1" as="geometry" />
        </mxCell>
        <mxCell id="OWdNk56Qyckdl0vmcLq8-283" value="mServRegRedis.sadd(service&#39;s key)&lt;br&gt;mServRegRedis.hset(serivce&#39;s ip, service&#39;s port)&lt;br&gt;mSub.on_message(bind onMessageFunc)&lt;br&gt;mSub.on_pmessage(bind onPMessageFunc)&lt;br&gt;mSub.on_meta(bind onMetaFunc)&lt;br&gt;mSub.subscribe()" style="shape=document;whiteSpace=wrap;html=1;boundedLbl=1;fillColor=#dae8fc;strokeColor=#6c8ebf;" parent="1" vertex="1">
          <mxGeometry x="2400" y="280" width="320" height="140" as="geometry" />
        </mxCell>
        <mxCell id="OWdNk56Qyckdl0vmcLq8-284" style="edgeStyle=orthogonalEdgeStyle;rounded=0;orthogonalLoop=1;jettySize=auto;html=1;exitX=1;exitY=0.5;exitDx=0;exitDy=0;entryX=0;entryY=0.5;entryDx=0;entryDy=0;fillColor=#dae8fc;strokeColor=#6c8ebf;" parent="1" source="OWdNk56Qyckdl0vmcLq8-269" target="OWdNk56Qyckdl0vmcLq8-283" edge="1">
          <mxGeometry relative="1" as="geometry" />
        </mxCell>
        <mxCell id="OWdNk56Qyckdl0vmcLq8-285" value="get heartbeat from centerServer&lt;br&gt;mServRegRedis.zadd(number of active client&#39;s connection)" style="shape=document;whiteSpace=wrap;html=1;boundedLbl=1;fillColor=#dae8fc;strokeColor=#6c8ebf;" parent="1" vertex="1">
          <mxGeometry x="2400" y="440" width="360" height="80" as="geometry" />
        </mxCell>
        <mxCell id="OWdNk56Qyckdl0vmcLq8-286" style="edgeStyle=orthogonalEdgeStyle;rounded=0;orthogonalLoop=1;jettySize=auto;html=1;exitX=1;exitY=0.5;exitDx=0;exitDy=0;entryX=0;entryY=0.5;entryDx=0;entryDy=0;fillColor=#dae8fc;strokeColor=#6c8ebf;" parent="1" source="OWdNk56Qyckdl0vmcLq8-270" target="OWdNk56Qyckdl0vmcLq8-285" edge="1">
          <mxGeometry relative="1" as="geometry" />
        </mxCell>
        <mxCell id="OWdNk56Qyckdl0vmcLq8-287" value="mSub.consume() in loop" style="shape=document;whiteSpace=wrap;html=1;boundedLbl=1;fillColor=#dae8fc;strokeColor=#6c8ebf;" parent="1" vertex="1">
          <mxGeometry x="2400" y="560" width="160" height="60" as="geometry" />
        </mxCell>
        <mxCell id="OWdNk56Qyckdl0vmcLq8-288" style="edgeStyle=orthogonalEdgeStyle;rounded=0;orthogonalLoop=1;jettySize=auto;html=1;exitX=1;exitY=0.5;exitDx=0;exitDy=0;entryX=0;entryY=0.5;entryDx=0;entryDy=0;fillColor=#dae8fc;strokeColor=#6c8ebf;" parent="1" source="OWdNk56Qyckdl0vmcLq8-273" target="OWdNk56Qyckdl0vmcLq8-287" edge="1">
          <mxGeometry relative="1" as="geometry" />
        </mxCell>
        <mxCell id="OWdNk56Qyckdl0vmcLq8-289" value="sub/pub of redis" style="shape=document;whiteSpace=wrap;html=1;boundedLbl=1;fillColor=#dae8fc;strokeColor=#6c8ebf;" parent="1" vertex="1">
          <mxGeometry x="2400" y="760" width="120" height="40" as="geometry" />
        </mxCell>
        <mxCell id="OWdNk56Qyckdl0vmcLq8-290" style="edgeStyle=orthogonalEdgeStyle;rounded=0;orthogonalLoop=1;jettySize=auto;html=1;exitX=1;exitY=0.5;exitDx=0;exitDy=0;entryX=0;entryY=0.5;entryDx=0;entryDy=0;fillColor=#dae8fc;strokeColor=#6c8ebf;" parent="1" source="OWdNk56Qyckdl0vmcLq8-277" target="OWdNk56Qyckdl0vmcLq8-289" edge="1">
          <mxGeometry relative="1" as="geometry" />
        </mxCell>
        <mxCell id="OWdNk56Qyckdl0vmcLq8-291" value="services&#39; infos saved by redis" style="shape=document;whiteSpace=wrap;html=1;boundedLbl=1;fillColor=#dae8fc;strokeColor=#6c8ebf;" parent="1" vertex="1">
          <mxGeometry x="2400" y="680" width="200" height="40" as="geometry" />
        </mxCell>
        <mxCell id="OWdNk56Qyckdl0vmcLq8-292" style="edgeStyle=orthogonalEdgeStyle;rounded=0;orthogonalLoop=1;jettySize=auto;html=1;exitX=1;exitY=0.5;exitDx=0;exitDy=0;entryX=0;entryY=0.5;entryDx=0;entryDy=0;fillColor=#dae8fc;strokeColor=#6c8ebf;" parent="1" source="OWdNk56Qyckdl0vmcLq8-276" target="OWdNk56Qyckdl0vmcLq8-291" edge="1">
          <mxGeometry relative="1" as="geometry" />
        </mxCell>
        <mxCell id="OWdNk56Qyckdl0vmcLq8-295" value="mLoginMessageOp.registerMessageType&amp;lt;&amp;gt;() in each eventLoopThread" style="rounded=0;whiteSpace=wrap;html=1;" parent="1" vertex="1">
          <mxGeometry x="880" y="80" width="440" height="80" as="geometry" />
        </mxCell>
        <mxCell id="OWdNk56Qyckdl0vmcLq8-296" value="initialization" style="text;html=1;align=center;verticalAlign=middle;resizable=0;points=[];autosize=1;strokeColor=none;fillColor=none;" parent="1" vertex="1">
          <mxGeometry x="760" y="90" width="90" height="30" as="geometry" />
        </mxCell>
        <mxCell id="OWdNk56Qyckdl0vmcLq8-297" value="GameServer" style="swimlane;whiteSpace=wrap;html=1;startSize=40;fillColor=#0050ef;fontColor=#ffffff;strokeColor=#001DBC;" parent="1" vertex="1">
          <mxGeometry x="1200" y="2200" width="240" height="240" as="geometry" />
        </mxCell>
        <mxCell id="OWdNk56Qyckdl0vmcLq8-298" value="Similar to GatewayServer" style="rounded=0;whiteSpace=wrap;html=1;" parent="OWdNk56Qyckdl0vmcLq8-297" vertex="1">
          <mxGeometry x="40" y="80" width="160" height="40" as="geometry" />
        </mxCell>
        <mxCell id="OWdNk56Qyckdl0vmcLq8-305" value="Similar to GatewayServer" style="rounded=1;whiteSpace=wrap;html=1;arcSize=46;" parent="OWdNk56Qyckdl0vmcLq8-297" vertex="1">
          <mxGeometry x="40" y="160" width="160" height="40" as="geometry" />
        </mxCell>
        <mxCell id="OWdNk56Qyckdl0vmcLq8-313" value="RSBrokerManager" style="swimlane;whiteSpace=wrap;html=1;startSize=40;fillColor=#1ba1e2;fontColor=#ffffff;strokeColor=#006EAF;" parent="1" vertex="1">
          <mxGeometry x="3680" y="120" width="240" height="1260" as="geometry" />
        </mxCell>
        <mxCell id="OWdNk56Qyckdl0vmcLq8-314" value="setNapSecond()" style="rounded=0;whiteSpace=wrap;html=1;" parent="OWdNk56Qyckdl0vmcLq8-313" vertex="1">
          <mxGeometry x="40" y="80" width="160" height="40" as="geometry" />
        </mxCell>
        <mxCell id="OWdNk56Qyckdl0vmcLq8-315" value="setTolerantTime()" style="rounded=0;whiteSpace=wrap;html=1;" parent="OWdNk56Qyckdl0vmcLq8-313" vertex="1">
          <mxGeometry x="40" y="140" width="160" height="40" as="geometry" />
        </mxCell>
        <mxCell id="OWdNk56Qyckdl0vmcLq8-316" value="setTransferTime()" style="rounded=0;whiteSpace=wrap;html=1;" parent="OWdNk56Qyckdl0vmcLq8-313" vertex="1">
          <mxGeometry x="40" y="200" width="160" height="40" as="geometry" />
        </mxCell>
        <mxCell id="OWdNk56Qyckdl0vmcLq8-317" value="setMaxDelivered()" style="rounded=0;whiteSpace=wrap;html=1;" parent="OWdNk56Qyckdl0vmcLq8-313" vertex="1">
          <mxGeometry x="40" y="260" width="160" height="40" as="geometry" />
        </mxCell>
        <mxCell id="OWdNk56Qyckdl0vmcLq8-318" value="registerKey()" style="rounded=0;whiteSpace=wrap;html=1;" parent="OWdNk56Qyckdl0vmcLq8-313" vertex="1">
          <mxGeometry x="40" y="320" width="160" height="40" as="geometry" />
        </mxCell>
        <mxCell id="OWdNk56Qyckdl0vmcLq8-319" value="run()" style="rounded=0;whiteSpace=wrap;html=1;" parent="OWdNk56Qyckdl0vmcLq8-313" vertex="1">
          <mxGeometry x="40" y="380" width="160" height="40" as="geometry" />
        </mxCell>
        <mxCell id="OWdNk56Qyckdl0vmcLq8-320" value="pushPendingGroups()" style="rounded=0;whiteSpace=wrap;html=1;" parent="OWdNk56Qyckdl0vmcLq8-313" vertex="1">
          <mxGeometry x="40" y="440" width="160" height="40" as="geometry" />
        </mxCell>
        <mxCell id="OWdNk56Qyckdl0vmcLq8-321" value="mRedis" style="rounded=1;whiteSpace=wrap;html=1;arcSize=46;" parent="OWdNk56Qyckdl0vmcLq8-313" vertex="1">
          <mxGeometry x="60" y="700" width="120" height="40" as="geometry" />
        </mxCell>
        <mxCell id="OWdNk56Qyckdl0vmcLq8-322" value="mNapMilliseconds" style="rounded=1;whiteSpace=wrap;html=1;arcSize=46;" parent="OWdNk56Qyckdl0vmcLq8-313" vertex="1">
          <mxGeometry x="40" y="760" width="160" height="40" as="geometry" />
        </mxCell>
        <mxCell id="OWdNk56Qyckdl0vmcLq8-323" value="mTolerantMilliseconds" style="rounded=1;whiteSpace=wrap;html=1;arcSize=46;" parent="OWdNk56Qyckdl0vmcLq8-313" vertex="1">
          <mxGeometry x="40" y="820" width="160" height="40" as="geometry" />
        </mxCell>
        <mxCell id="OWdNk56Qyckdl0vmcLq8-324" value="pushPendingConsumers()" style="rounded=0;whiteSpace=wrap;html=1;" parent="OWdNk56Qyckdl0vmcLq8-313" vertex="1">
          <mxGeometry x="40" y="500" width="160" height="40" as="geometry" />
        </mxCell>
        <mxCell id="OWdNk56Qyckdl0vmcLq8-325" value="getOneSibling()" style="rounded=0;whiteSpace=wrap;html=1;" parent="OWdNk56Qyckdl0vmcLq8-313" vertex="1">
          <mxGeometry x="40" y="560" width="160" height="40" as="geometry" />
        </mxCell>
        <mxCell id="OWdNk56Qyckdl0vmcLq8-326" value="handlePending()" style="rounded=0;whiteSpace=wrap;html=1;" parent="OWdNk56Qyckdl0vmcLq8-313" vertex="1">
          <mxGeometry x="40" y="620" width="160" height="40" as="geometry" />
        </mxCell>
        <mxCell id="OWdNk56Qyckdl0vmcLq8-327" value="mTransferMilliseconds" style="rounded=1;whiteSpace=wrap;html=1;arcSize=46;" parent="OWdNk56Qyckdl0vmcLq8-313" vertex="1">
          <mxGeometry x="40" y="880" width="160" height="40" as="geometry" />
        </mxCell>
        <mxCell id="OWdNk56Qyckdl0vmcLq8-328" value="mMaxDelivered" style="rounded=1;whiteSpace=wrap;html=1;arcSize=46;" parent="OWdNk56Qyckdl0vmcLq8-313" vertex="1">
          <mxGeometry x="40" y="940" width="160" height="40" as="geometry" />
        </mxCell>
        <mxCell id="OWdNk56Qyckdl0vmcLq8-329" value="mKeys" style="rounded=1;whiteSpace=wrap;html=1;arcSize=46;" parent="OWdNk56Qyckdl0vmcLq8-313" vertex="1">
          <mxGeometry x="40" y="1000" width="160" height="40" as="geometry" />
        </mxCell>
        <mxCell id="OWdNk56Qyckdl0vmcLq8-330" value="mPendingGroupQueue" style="rounded=1;whiteSpace=wrap;html=1;arcSize=46;" parent="OWdNk56Qyckdl0vmcLq8-313" vertex="1">
          <mxGeometry x="40" y="1060" width="160" height="40" as="geometry" />
        </mxCell>
        <mxCell id="OWdNk56Qyckdl0vmcLq8-331" value="mPendingConsumerQueue" style="rounded=1;whiteSpace=wrap;html=1;arcSize=46;" parent="OWdNk56Qyckdl0vmcLq8-313" vertex="1">
          <mxGeometry x="40" y="1120" width="160" height="40" as="geometry" />
        </mxCell>
        <mxCell id="OWdNk56Qyckdl0vmcLq8-332" value="mPendingGroupsSibling" style="rounded=1;whiteSpace=wrap;html=1;arcSize=46;" parent="OWdNk56Qyckdl0vmcLq8-313" vertex="1">
          <mxGeometry x="40" y="1180" width="160" height="40" as="geometry" />
        </mxCell>
        <mxCell id="OWdNk56Qyckdl0vmcLq8-333" value="set&amp;nbsp;mNapMilliseconds, which means interval of run()" style="shape=document;whiteSpace=wrap;html=1;boundedLbl=1;fillColor=#dae8fc;strokeColor=#6c8ebf;" parent="1" vertex="1">
          <mxGeometry x="3080" y="200" width="440" height="60" as="geometry" />
        </mxCell>
        <mxCell id="OWdNk56Qyckdl0vmcLq8-334" value="set mTolerantMilliseconds, which meas limit of pending time" style="shape=document;whiteSpace=wrap;html=1;boundedLbl=1;fillColor=#dae8fc;strokeColor=#6c8ebf;" parent="1" vertex="1">
          <mxGeometry x="3080" y="280" width="440" height="60" as="geometry" />
        </mxCell>
        <mxCell id="OWdNk56Qyckdl0vmcLq8-335" value="set mTransferMilliseconds, which meas limit interval of transferring msg" style="shape=document;whiteSpace=wrap;html=1;boundedLbl=1;fillColor=#dae8fc;strokeColor=#6c8ebf;" parent="1" vertex="1">
          <mxGeometry x="3080" y="360" width="440" height="60" as="geometry" />
        </mxCell>
        <mxCell id="OWdNk56Qyckdl0vmcLq8-336" value="set mMaxDelivered, which meas limit of transferring number of times" style="shape=document;whiteSpace=wrap;html=1;boundedLbl=1;fillColor=#dae8fc;strokeColor=#6c8ebf;" parent="1" vertex="1">
          <mxGeometry x="3080" y="440" width="440" height="60" as="geometry" />
        </mxCell>
        <mxCell id="OWdNk56Qyckdl0vmcLq8-337" style="edgeStyle=orthogonalEdgeStyle;rounded=0;orthogonalLoop=1;jettySize=auto;html=1;exitX=0;exitY=0.5;exitDx=0;exitDy=0;entryX=1;entryY=0.5;entryDx=0;entryDy=0;fillColor=#dae8fc;strokeColor=#6c8ebf;" parent="1" source="OWdNk56Qyckdl0vmcLq8-314" target="OWdNk56Qyckdl0vmcLq8-333" edge="1">
          <mxGeometry relative="1" as="geometry" />
        </mxCell>
        <mxCell id="OWdNk56Qyckdl0vmcLq8-338" style="edgeStyle=orthogonalEdgeStyle;rounded=0;orthogonalLoop=1;jettySize=auto;html=1;exitX=0;exitY=0.5;exitDx=0;exitDy=0;entryX=1;entryY=0.5;entryDx=0;entryDy=0;fillColor=#dae8fc;strokeColor=#6c8ebf;" parent="1" source="OWdNk56Qyckdl0vmcLq8-315" target="OWdNk56Qyckdl0vmcLq8-334" edge="1">
          <mxGeometry relative="1" as="geometry">
            <Array as="points">
              <mxPoint x="3560" y="280" />
              <mxPoint x="3560" y="310" />
            </Array>
          </mxGeometry>
        </mxCell>
        <mxCell id="OWdNk56Qyckdl0vmcLq8-339" style="edgeStyle=orthogonalEdgeStyle;rounded=0;orthogonalLoop=1;jettySize=auto;html=1;exitX=0;exitY=0.5;exitDx=0;exitDy=0;entryX=1;entryY=0.5;entryDx=0;entryDy=0;fillColor=#dae8fc;strokeColor=#6c8ebf;" parent="1" source="OWdNk56Qyckdl0vmcLq8-316" target="OWdNk56Qyckdl0vmcLq8-335" edge="1">
          <mxGeometry relative="1" as="geometry">
            <Array as="points">
              <mxPoint x="3580" y="340" />
              <mxPoint x="3580" y="390" />
            </Array>
          </mxGeometry>
        </mxCell>
        <mxCell id="OWdNk56Qyckdl0vmcLq8-340" style="edgeStyle=orthogonalEdgeStyle;rounded=0;orthogonalLoop=1;jettySize=auto;html=1;exitX=0;exitY=0.5;exitDx=0;exitDy=0;entryX=1;entryY=0.5;entryDx=0;entryDy=0;fillColor=#dae8fc;strokeColor=#6c8ebf;" parent="1" source="OWdNk56Qyckdl0vmcLq8-317" target="OWdNk56Qyckdl0vmcLq8-336" edge="1">
          <mxGeometry relative="1" as="geometry">
            <Array as="points">
              <mxPoint x="3600" y="400" />
              <mxPoint x="3600" y="470" />
            </Array>
          </mxGeometry>
        </mxCell>
        <mxCell id="OWdNk56Qyckdl0vmcLq8-341" value="invoke handlePending() in loop" style="shape=document;whiteSpace=wrap;html=1;boundedLbl=1;fillColor=#dae8fc;strokeColor=#6c8ebf;" parent="1" vertex="1">
          <mxGeometry x="3320" y="520" width="200" height="60" as="geometry" />
        </mxCell>
        <mxCell id="OWdNk56Qyckdl0vmcLq8-342" style="edgeStyle=orthogonalEdgeStyle;rounded=0;orthogonalLoop=1;jettySize=auto;html=1;exitX=0;exitY=0.5;exitDx=0;exitDy=0;entryX=1;entryY=0.5;entryDx=0;entryDy=0;fillColor=#dae8fc;strokeColor=#6c8ebf;" parent="1" source="OWdNk56Qyckdl0vmcLq8-319" target="OWdNk56Qyckdl0vmcLq8-341" edge="1">
          <mxGeometry relative="1" as="geometry">
            <Array as="points">
              <mxPoint x="3560" y="520" />
              <mxPoint x="3560" y="550" />
            </Array>
          </mxGeometry>
        </mxCell>
        <mxCell id="OWdNk56Qyckdl0vmcLq8-343" value="mPendingGroupQueue.push()&lt;br&gt;mPendingGroupsSibling.insert()" style="shape=document;whiteSpace=wrap;html=1;boundedLbl=1;fillColor=#dae8fc;strokeColor=#6c8ebf;" parent="1" vertex="1">
          <mxGeometry x="3280" y="600" width="240" height="80" as="geometry" />
        </mxCell>
        <mxCell id="OWdNk56Qyckdl0vmcLq8-348" style="edgeStyle=orthogonalEdgeStyle;rounded=0;orthogonalLoop=1;jettySize=auto;html=1;exitX=1;exitY=0.5;exitDx=0;exitDy=0;entryX=0.5;entryY=0;entryDx=0;entryDy=0;entryPerimeter=0;" parent="1" source="OWdNk56Qyckdl0vmcLq8-330" target="OWdNk56Qyckdl0vmcLq8-359" edge="1">
          <mxGeometry relative="1" as="geometry">
            <mxPoint x="4010" y="1200" as="targetPoint" />
          </mxGeometry>
        </mxCell>
        <mxCell id="OWdNk56Qyckdl0vmcLq8-353" value="pending consumer" style="rounded=0;whiteSpace=wrap;html=1;" parent="1" vertex="1">
          <mxGeometry x="4240" y="1260" width="130" height="40" as="geometry" />
        </mxCell>
        <mxCell id="OWdNk56Qyckdl0vmcLq8-355" value="" style="rounded=0;whiteSpace=wrap;html=1;" parent="1" vertex="1">
          <mxGeometry x="4000" y="1340" width="280" height="80" as="geometry" />
        </mxCell>
        <mxCell id="OWdNk56Qyckdl0vmcLq8-356" value="pending group" style="rounded=0;whiteSpace=wrap;html=1;" parent="1" vertex="1">
          <mxGeometry x="4020" y="1360" width="80" height="40" as="geometry" />
        </mxCell>
        <mxCell id="OWdNk56Qyckdl0vmcLq8-359" value="" style="shape=cylinder3;whiteSpace=wrap;html=1;boundedLbl=1;backgroundOutline=1;size=15;rotation=-90;fillColor=none;" parent="1" vertex="1">
          <mxGeometry x="4086.88" y="1079.38" width="72.5" height="241.25" as="geometry" />
        </mxCell>
        <mxCell id="OWdNk56Qyckdl0vmcLq8-360" value="pending group" style="rounded=0;whiteSpace=wrap;html=1;" parent="1" vertex="1">
          <mxGeometry x="4100" y="1180" width="130" height="40" as="geometry" />
        </mxCell>
        <mxCell id="OWdNk56Qyckdl0vmcLq8-361" value="key" style="rounded=0;whiteSpace=wrap;html=1;" parent="1" vertex="1">
          <mxGeometry x="4050" y="1180" width="40" height="40" as="geometry" />
        </mxCell>
        <mxCell id="OWdNk56Qyckdl0vmcLq8-362" value="" style="shape=cylinder3;whiteSpace=wrap;html=1;boundedLbl=1;backgroundOutline=1;size=15;rotation=-90;fillColor=none;" parent="1" vertex="1">
          <mxGeometry x="4156.42" y="1089.84" width="72.5" height="380.32" as="geometry" />
        </mxCell>
        <mxCell id="OWdNk56Qyckdl0vmcLq8-363" value="pending group" style="rounded=0;whiteSpace=wrap;html=1;" parent="1" vertex="1">
          <mxGeometry x="4100" y="1259.99" width="130" height="40" as="geometry" />
        </mxCell>
        <mxCell id="OWdNk56Qyckdl0vmcLq8-364" value="key" style="rounded=0;whiteSpace=wrap;html=1;" parent="1" vertex="1">
          <mxGeometry x="4050" y="1259.99" width="40" height="40" as="geometry" />
        </mxCell>
        <mxCell id="OWdNk56Qyckdl0vmcLq8-365" style="edgeStyle=orthogonalEdgeStyle;rounded=0;orthogonalLoop=1;jettySize=auto;html=1;exitX=1;exitY=0.5;exitDx=0;exitDy=0;entryX=0.5;entryY=0;entryDx=0;entryDy=0;entryPerimeter=0;" parent="1" source="OWdNk56Qyckdl0vmcLq8-331" target="OWdNk56Qyckdl0vmcLq8-362" edge="1">
          <mxGeometry relative="1" as="geometry" />
        </mxCell>
        <mxCell id="OWdNk56Qyckdl0vmcLq8-366" value="" style="shape=curlyBracket;whiteSpace=wrap;html=1;rounded=1;labelPosition=left;verticalLabelPosition=middle;align=right;verticalAlign=middle;" parent="1" vertex="1">
          <mxGeometry x="4120" y="1360" width="20" height="40" as="geometry" />
        </mxCell>
        <mxCell id="OWdNk56Qyckdl0vmcLq8-367" value="" style="shape=curlyBracket;whiteSpace=wrap;html=1;rounded=1;labelPosition=left;verticalLabelPosition=middle;align=right;verticalAlign=middle;rotation=-180;" parent="1" vertex="1">
          <mxGeometry x="4240" y="1360" width="20" height="40" as="geometry" />
        </mxCell>
        <mxCell id="OWdNk56Qyckdl0vmcLq8-368" value="consumers" style="rounded=0;whiteSpace=wrap;html=1;" parent="1" vertex="1">
          <mxGeometry x="4148.92" y="1360" width="80" height="40" as="geometry" />
        </mxCell>
        <mxCell id="OWdNk56Qyckdl0vmcLq8-369" style="edgeStyle=orthogonalEdgeStyle;rounded=0;orthogonalLoop=1;jettySize=auto;html=1;exitX=1;exitY=0.5;exitDx=0;exitDy=0;entryX=0;entryY=0.5;entryDx=0;entryDy=0;" parent="1" source="OWdNk56Qyckdl0vmcLq8-332" target="OWdNk56Qyckdl0vmcLq8-355" edge="1">
          <mxGeometry relative="1" as="geometry" />
        </mxCell>
        <mxCell id="OWdNk56Qyckdl0vmcLq8-370" style="edgeStyle=orthogonalEdgeStyle;rounded=0;orthogonalLoop=1;jettySize=auto;html=1;exitX=0;exitY=0.5;exitDx=0;exitDy=0;entryX=1;entryY=0.5;entryDx=0;entryDy=0;fillColor=#dae8fc;strokeColor=#6c8ebf;" parent="1" source="OWdNk56Qyckdl0vmcLq8-320" target="OWdNk56Qyckdl0vmcLq8-343" edge="1">
          <mxGeometry relative="1" as="geometry">
            <Array as="points">
              <mxPoint x="3580" y="580" />
              <mxPoint x="3580" y="640" />
            </Array>
          </mxGeometry>
        </mxCell>
        <mxCell id="OWdNk56Qyckdl0vmcLq8-371" value="mPendingConsumerQueue.push()&lt;br&gt;mPendingGroupsSibling[group].insert()" style="shape=document;whiteSpace=wrap;html=1;boundedLbl=1;fillColor=#dae8fc;strokeColor=#6c8ebf;" parent="1" vertex="1">
          <mxGeometry x="3240" y="700" width="280" height="80" as="geometry" />
        </mxCell>
        <mxCell id="OWdNk56Qyckdl0vmcLq8-372" style="edgeStyle=orthogonalEdgeStyle;rounded=0;orthogonalLoop=1;jettySize=auto;html=1;exitX=0;exitY=0.5;exitDx=0;exitDy=0;entryX=1;entryY=0.5;entryDx=0;entryDy=0;fillColor=#dae8fc;strokeColor=#6c8ebf;" parent="1" source="OWdNk56Qyckdl0vmcLq8-324" target="OWdNk56Qyckdl0vmcLq8-371" edge="1">
          <mxGeometry relative="1" as="geometry">
            <Array as="points">
              <mxPoint x="3600" y="640" />
              <mxPoint x="3600" y="740" />
            </Array>
          </mxGeometry>
        </mxCell>
        <mxCell id="OWdNk56Qyckdl0vmcLq8-373" value="get one consumer in mPendingGroupsSibling[group]" style="shape=document;whiteSpace=wrap;html=1;boundedLbl=1;fillColor=#dae8fc;strokeColor=#6c8ebf;" parent="1" vertex="1">
          <mxGeometry x="3200" y="800" width="320" height="60" as="geometry" />
        </mxCell>
        <mxCell id="OWdNk56Qyckdl0vmcLq8-374" style="edgeStyle=orthogonalEdgeStyle;rounded=0;orthogonalLoop=1;jettySize=auto;html=1;exitX=0;exitY=0.5;exitDx=0;exitDy=0;entryX=1;entryY=0.5;entryDx=0;entryDy=0;fillColor=#dae8fc;strokeColor=#6c8ebf;" parent="1" source="OWdNk56Qyckdl0vmcLq8-325" target="OWdNk56Qyckdl0vmcLq8-373" edge="1">
          <mxGeometry relative="1" as="geometry" />
        </mxCell>
        <mxCell id="OWdNk56Qyckdl0vmcLq8-375" value="reach the max delivered times, considered to be dead letter, del it&lt;br&gt;pending too long time, just ack it&lt;br&gt;transfer to sibling" style="shape=document;whiteSpace=wrap;html=1;boundedLbl=1;fillColor=#dae8fc;strokeColor=#6c8ebf;" parent="1" vertex="1">
          <mxGeometry x="3120" y="880" width="400" height="80" as="geometry" />
        </mxCell>
        <mxCell id="OWdNk56Qyckdl0vmcLq8-376" style="edgeStyle=orthogonalEdgeStyle;rounded=0;orthogonalLoop=1;jettySize=auto;html=1;exitX=0;exitY=0.5;exitDx=0;exitDy=0;entryX=1;entryY=0.5;entryDx=0;entryDy=0;fillColor=#dae8fc;strokeColor=#6c8ebf;" parent="1" source="OWdNk56Qyckdl0vmcLq8-326" target="OWdNk56Qyckdl0vmcLq8-375" edge="1">
          <mxGeometry relative="1" as="geometry">
            <Array as="points">
              <mxPoint x="3560" y="760" />
              <mxPoint x="3560" y="920" />
            </Array>
          </mxGeometry>
        </mxCell>
        <mxCell id="OWdNk56Qyckdl0vmcLq8-378" value="DBServGateway" style="swimlane;whiteSpace=wrap;html=1;startSize=40;fillColor=#f8cecc;strokeColor=#b85450;" parent="1" vertex="1">
          <mxGeometry x="3800" y="1560" width="240" height="940" as="geometry" />
        </mxCell>
        <mxCell id="OWdNk56Qyckdl0vmcLq8-388" value="start()" style="rounded=0;whiteSpace=wrap;html=1;" parent="OWdNk56Qyckdl0vmcLq8-378" vertex="1">
          <mxGeometry x="40" y="80" width="160" height="40" as="geometry" />
        </mxCell>
        <mxCell id="OWdNk56Qyckdl0vmcLq8-389" value="loginHandleFunc()" style="rounded=0;whiteSpace=wrap;html=1;" parent="OWdNk56Qyckdl0vmcLq8-378" vertex="1">
          <mxGeometry x="40" y="140" width="160" height="40" as="geometry" />
        </mxCell>
        <mxCell id="OWdNk56Qyckdl0vmcLq8-390" value="loginCharacterHandleFunc()" style="rounded=0;whiteSpace=wrap;html=1;" parent="OWdNk56Qyckdl0vmcLq8-378" vertex="1">
          <mxGeometry x="40" y="200" width="160" height="40" as="geometry" />
        </mxCell>
        <mxCell id="OWdNk56Qyckdl0vmcLq8-391" value="gameHandleFunc()" style="rounded=0;whiteSpace=wrap;html=1;" parent="OWdNk56Qyckdl0vmcLq8-378" vertex="1">
          <mxGeometry x="40" y="260" width="160" height="40" as="geometry" />
        </mxCell>
        <mxCell id="OWdNk56Qyckdl0vmcLq8-392" value="gameCharacterHandleFunc()" style="rounded=0;whiteSpace=wrap;html=1;" parent="OWdNk56Qyckdl0vmcLq8-378" vertex="1">
          <mxGeometry x="40" y="320" width="160" height="40" as="geometry" />
        </mxCell>
        <mxCell id="OWdNk56Qyckdl0vmcLq8-393" value="TODOMoreHandleFunc()" style="rounded=0;whiteSpace=wrap;html=1;" parent="OWdNk56Qyckdl0vmcLq8-378" vertex="1">
          <mxGeometry x="40" y="380" width="160" height="40" as="geometry" />
        </mxCell>
        <mxCell id="OWdNk56Qyckdl0vmcLq8-394" value="mRedis" style="rounded=1;whiteSpace=wrap;html=1;arcSize=46;" parent="OWdNk56Qyckdl0vmcLq8-378" vertex="1">
          <mxGeometry x="60" y="460" width="120" height="40" as="geometry" />
        </mxCell>
        <mxCell id="OWdNk56Qyckdl0vmcLq8-395" value="mServRegRedis" style="rounded=1;whiteSpace=wrap;html=1;arcSize=46;" parent="OWdNk56Qyckdl0vmcLq8-378" vertex="1">
          <mxGeometry x="60" y="520" width="120" height="40" as="geometry" />
        </mxCell>
        <mxCell id="OWdNk56Qyckdl0vmcLq8-396" value="mCache" style="rounded=1;whiteSpace=wrap;html=1;arcSize=46;" parent="OWdNk56Qyckdl0vmcLq8-378" vertex="1">
          <mxGeometry x="60" y="580" width="120" height="40" as="geometry" />
        </mxCell>
        <mxCell id="OWdNk56Qyckdl0vmcLq8-397" value="mDatabase" style="rounded=1;whiteSpace=wrap;html=1;arcSize=46;" parent="OWdNk56Qyckdl0vmcLq8-378" vertex="1">
          <mxGeometry x="60" y="640" width="120" height="40" as="geometry" />
        </mxCell>
        <mxCell id="OWdNk56Qyckdl0vmcLq8-398" value="mLoginGateman" style="rounded=1;whiteSpace=wrap;html=1;arcSize=46;" parent="OWdNk56Qyckdl0vmcLq8-378" vertex="1">
          <mxGeometry x="60" y="700" width="120" height="40" as="geometry" />
        </mxCell>
        <mxCell id="OWdNk56Qyckdl0vmcLq8-399" value="mGameGateman" style="rounded=1;whiteSpace=wrap;html=1;arcSize=46;" parent="OWdNk56Qyckdl0vmcLq8-378" vertex="1">
          <mxGeometry x="60" y="760" width="120" height="40" as="geometry" />
        </mxCell>
        <mxCell id="OWdNk56Qyckdl0vmcLq8-400" value="mQueryTask" style="rounded=1;whiteSpace=wrap;html=1;arcSize=46;" parent="OWdNk56Qyckdl0vmcLq8-378" vertex="1">
          <mxGeometry x="60" y="880" width="120" height="40" as="geometry" />
        </mxCell>
        <mxCell id="OWdNk56Qyckdl0vmcLq8-427" value="mTODOMoreGateman" style="rounded=1;whiteSpace=wrap;html=1;arcSize=46;" parent="OWdNk56Qyckdl0vmcLq8-378" vertex="1">
          <mxGeometry x="40" y="820" width="160" height="40" as="geometry" />
        </mxCell>
        <mxCell id="OWdNk56Qyckdl0vmcLq8-387" style="edgeStyle=orthogonalEdgeStyle;rounded=0;orthogonalLoop=1;jettySize=auto;html=1;exitX=1;exitY=0.5;exitDx=0;exitDy=0;entryX=0.5;entryY=0;entryDx=0;entryDy=0;fillColor=#f8cecc;strokeColor=#b85450;" parent="1" source="OWdNk56Qyckdl0vmcLq8-379" target="OWdNk56Qyckdl0vmcLq8-378" edge="1">
          <mxGeometry relative="1" as="geometry" />
        </mxCell>
        <mxCell id="OWdNk56Qyckdl0vmcLq8-379" value="DBServGateway" style="rounded=0;whiteSpace=wrap;html=1;" parent="1" vertex="1">
          <mxGeometry x="3520" y="1440" width="160" height="40" as="geometry" />
        </mxCell>
        <mxCell id="OWdNk56Qyckdl0vmcLq8-380" value="cache" style="rounded=0;whiteSpace=wrap;html=1;" parent="1" vertex="1">
          <mxGeometry x="3520" y="1480" width="80" height="40" as="geometry" />
        </mxCell>
        <mxCell id="OWdNk56Qyckdl0vmcLq8-381" value="db" style="rounded=0;whiteSpace=wrap;html=1;" parent="1" vertex="1">
          <mxGeometry x="3600" y="1480" width="80" height="40" as="geometry" />
        </mxCell>
        <mxCell id="OWdNk56Qyckdl0vmcLq8-466" style="edgeStyle=orthogonalEdgeStyle;rounded=0;orthogonalLoop=1;jettySize=auto;html=1;exitX=0.5;exitY=1;exitDx=0;exitDy=0;exitPerimeter=0;entryX=0.5;entryY=0;entryDx=0;entryDy=0;fillColor=#f8cecc;strokeColor=#b85450;" parent="1" source="OWdNk56Qyckdl0vmcLq8-382" target="OWdNk56Qyckdl0vmcLq8-465" edge="1">
          <mxGeometry relative="1" as="geometry" />
        </mxCell>
        <mxCell id="OWdNk56Qyckdl0vmcLq8-382" value="Redis" style="shape=cylinder3;whiteSpace=wrap;html=1;boundedLbl=1;backgroundOutline=1;size=15;" parent="1" vertex="1">
          <mxGeometry x="3530" y="1560" width="60" height="80" as="geometry" />
        </mxCell>
        <mxCell id="OWdNk56Qyckdl0vmcLq8-467" style="edgeStyle=orthogonalEdgeStyle;rounded=0;orthogonalLoop=1;jettySize=auto;html=1;exitX=0.5;exitY=1;exitDx=0;exitDy=0;exitPerimeter=0;entryX=0.5;entryY=0;entryDx=0;entryDy=0;fillColor=#f8cecc;strokeColor=#b85450;" parent="1" source="OWdNk56Qyckdl0vmcLq8-383" target="OWdNk56Qyckdl0vmcLq8-458" edge="1">
          <mxGeometry relative="1" as="geometry" />
        </mxCell>
        <mxCell id="OWdNk56Qyckdl0vmcLq8-383" value="Mongodb" style="shape=cylinder3;whiteSpace=wrap;html=1;boundedLbl=1;backgroundOutline=1;size=15;" parent="1" vertex="1">
          <mxGeometry x="3610" y="1560" width="60" height="80" as="geometry" />
        </mxCell>
        <mxCell id="OWdNk56Qyckdl0vmcLq8-384" style="edgeStyle=orthogonalEdgeStyle;rounded=0;orthogonalLoop=1;jettySize=auto;html=1;exitX=0.5;exitY=1;exitDx=0;exitDy=0;entryX=0.5;entryY=0;entryDx=0;entryDy=0;entryPerimeter=0;" parent="1" source="OWdNk56Qyckdl0vmcLq8-380" target="OWdNk56Qyckdl0vmcLq8-382" edge="1">
          <mxGeometry relative="1" as="geometry" />
        </mxCell>
        <mxCell id="OWdNk56Qyckdl0vmcLq8-385" style="edgeStyle=orthogonalEdgeStyle;rounded=0;orthogonalLoop=1;jettySize=auto;html=1;exitX=0.5;exitY=1;exitDx=0;exitDy=0;entryX=0.5;entryY=0;entryDx=0;entryDy=0;entryPerimeter=0;" parent="1" source="OWdNk56Qyckdl0vmcLq8-381" target="OWdNk56Qyckdl0vmcLq8-383" edge="1">
          <mxGeometry relative="1" as="geometry" />
        </mxCell>
        <mxCell id="OWdNk56Qyckdl0vmcLq8-401" value="DBServGateman" style="swimlane;whiteSpace=wrap;html=1;startSize=40;fillColor=#fff2cc;strokeColor=#d6b656;" parent="1" vertex="1">
          <mxGeometry x="3080" y="2440" width="240" height="360" as="geometry" />
        </mxCell>
        <mxCell id="OWdNk56Qyckdl0vmcLq8-402" value="setThreadNum()" style="rounded=0;whiteSpace=wrap;html=1;" parent="OWdNk56Qyckdl0vmcLq8-401" vertex="1">
          <mxGeometry x="40" y="80" width="160" height="40" as="geometry" />
        </mxCell>
        <mxCell id="OWdNk56Qyckdl0vmcLq8-403" value="reader()" style="rounded=0;whiteSpace=wrap;html=1;" parent="OWdNk56Qyckdl0vmcLq8-401" vertex="1">
          <mxGeometry x="40" y="140" width="160" height="40" as="geometry" />
        </mxCell>
        <mxCell id="OWdNk56Qyckdl0vmcLq8-404" value="registerFunc()" style="rounded=0;whiteSpace=wrap;html=1;" parent="OWdNk56Qyckdl0vmcLq8-401" vertex="1">
          <mxGeometry x="40" y="200" width="160" height="40" as="geometry" />
        </mxCell>
        <mxCell id="OWdNk56Qyckdl0vmcLq8-408" value="mHandleFuncs" style="rounded=1;whiteSpace=wrap;html=1;arcSize=46;" parent="OWdNk56Qyckdl0vmcLq8-401" vertex="1">
          <mxGeometry x="60" y="280" width="120" height="40" as="geometry" />
        </mxCell>
        <mxCell id="OWdNk56Qyckdl0vmcLq8-415" value="" style="rounded=0;whiteSpace=wrap;html=1;" parent="1" vertex="1">
          <mxGeometry x="2700" y="2800" width="260" height="80" as="geometry" />
        </mxCell>
        <mxCell id="OWdNk56Qyckdl0vmcLq8-418" style="edgeStyle=orthogonalEdgeStyle;rounded=0;orthogonalLoop=1;jettySize=auto;html=1;exitX=1;exitY=0.5;exitDx=0;exitDy=0;entryX=0;entryY=0.5;entryDx=0;entryDy=0;" parent="1" source="OWdNk56Qyckdl0vmcLq8-416" target="OWdNk56Qyckdl0vmcLq8-417" edge="1">
          <mxGeometry relative="1" as="geometry" />
        </mxCell>
        <mxCell id="OWdNk56Qyckdl0vmcLq8-416" value="msgType" style="rounded=0;whiteSpace=wrap;html=1;" parent="1" vertex="1">
          <mxGeometry x="2720" y="2820" width="80" height="40" as="geometry" />
        </mxCell>
        <mxCell id="OWdNk56Qyckdl0vmcLq8-417" value="void(MsgType&amp;amp;)" style="rounded=0;whiteSpace=wrap;html=1;" parent="1" vertex="1">
          <mxGeometry x="2820" y="2820" width="120" height="40" as="geometry" />
        </mxCell>
        <mxCell id="OWdNk56Qyckdl0vmcLq8-419" style="edgeStyle=orthogonalEdgeStyle;rounded=0;orthogonalLoop=1;jettySize=auto;html=1;exitX=0;exitY=0.5;exitDx=0;exitDy=0;entryX=1;entryY=0.5;entryDx=0;entryDy=0;" parent="1" source="OWdNk56Qyckdl0vmcLq8-408" target="OWdNk56Qyckdl0vmcLq8-415" edge="1">
          <mxGeometry relative="1" as="geometry">
            <Array as="points">
              <mxPoint x="3040" y="2740" />
              <mxPoint x="3040" y="2840" />
            </Array>
          </mxGeometry>
        </mxCell>
        <mxCell id="OWdNk56Qyckdl0vmcLq8-420" value="mHandleFuncs.emplace(type, function&amp;lt;void(MsgType&amp;amp;)&amp;gt;)" style="shape=document;whiteSpace=wrap;html=1;boundedLbl=1;fillColor=#dae8fc;strokeColor=#6c8ebf;" parent="1" vertex="1">
          <mxGeometry x="2610" y="2700" width="360" height="60" as="geometry" />
        </mxCell>
        <mxCell id="OWdNk56Qyckdl0vmcLq8-421" style="edgeStyle=orthogonalEdgeStyle;rounded=0;orthogonalLoop=1;jettySize=auto;html=1;exitX=0;exitY=0.5;exitDx=0;exitDy=0;entryX=1;entryY=0.5;entryDx=0;entryDy=0;fillColor=#dae8fc;strokeColor=#6c8ebf;" parent="1" source="OWdNk56Qyckdl0vmcLq8-404" target="OWdNk56Qyckdl0vmcLq8-420" edge="1">
          <mxGeometry relative="1" as="geometry">
            <Array as="points">
              <mxPoint x="3020" y="2660" />
              <mxPoint x="3020" y="2730" />
            </Array>
          </mxGeometry>
        </mxCell>
        <mxCell id="OWdNk56Qyckdl0vmcLq8-422" value="msg = RSBrokerHelper::pull()&lt;br&gt;mHandleFuncs[msg.TYPE](msg)&lt;br&gt;RSBrokerHelper::del() if error msgType&lt;br&gt;RSBrokerHelper::ack()&lt;br&gt;RSBrokerHelper::push() if need continue transfer message" style="shape=document;whiteSpace=wrap;html=1;boundedLbl=1;fillColor=#dae8fc;strokeColor=#6c8ebf;" parent="1" vertex="1">
          <mxGeometry x="2600" y="2560" width="360" height="120" as="geometry" />
        </mxCell>
        <mxCell id="OWdNk56Qyckdl0vmcLq8-423" style="edgeStyle=orthogonalEdgeStyle;rounded=0;orthogonalLoop=1;jettySize=auto;html=1;exitX=0;exitY=0.5;exitDx=0;exitDy=0;entryX=1;entryY=0.5;entryDx=0;entryDy=0;fillColor=#dae8fc;strokeColor=#6c8ebf;" parent="1" source="OWdNk56Qyckdl0vmcLq8-403" target="OWdNk56Qyckdl0vmcLq8-422" edge="1">
          <mxGeometry relative="1" as="geometry">
            <Array as="points">
              <mxPoint x="3000" y="2600" />
              <mxPoint x="3000" y="2620" />
            </Array>
          </mxGeometry>
        </mxCell>
        <mxCell id="OWdNk56Qyckdl0vmcLq8-424" style="edgeStyle=orthogonalEdgeStyle;rounded=0;orthogonalLoop=1;jettySize=auto;html=1;exitX=0;exitY=0.5;exitDx=0;exitDy=0;entryX=0.5;entryY=0;entryDx=0;entryDy=0;fillColor=#fff2cc;strokeColor=#d6b656;" parent="1" source="OWdNk56Qyckdl0vmcLq8-398" target="OWdNk56Qyckdl0vmcLq8-401" edge="1">
          <mxGeometry relative="1" as="geometry" />
        </mxCell>
        <mxCell id="OWdNk56Qyckdl0vmcLq8-426" style="edgeStyle=orthogonalEdgeStyle;rounded=0;orthogonalLoop=1;jettySize=auto;html=1;exitX=0;exitY=0.5;exitDx=0;exitDy=0;entryX=0.5;entryY=0;entryDx=0;entryDy=0;fillColor=#fff2cc;strokeColor=#d6b656;" parent="1" source="OWdNk56Qyckdl0vmcLq8-399" target="OWdNk56Qyckdl0vmcLq8-401" edge="1">
          <mxGeometry relative="1" as="geometry" />
        </mxCell>
        <mxCell id="OWdNk56Qyckdl0vmcLq8-428" style="edgeStyle=orthogonalEdgeStyle;rounded=0;orthogonalLoop=1;jettySize=auto;html=1;exitX=0;exitY=0.5;exitDx=0;exitDy=0;entryX=0.5;entryY=0;entryDx=0;entryDy=0;fillColor=#fff2cc;strokeColor=#d6b656;" parent="1" source="OWdNk56Qyckdl0vmcLq8-427" target="OWdNk56Qyckdl0vmcLq8-401" edge="1">
          <mxGeometry relative="1" as="geometry" />
        </mxCell>
        <mxCell id="OWdNk56Qyckdl0vmcLq8-429" value="mDatabase.initDBCollName()&lt;br&gt;mDatabase.createIndex()&lt;br&gt;RSBrokerHelper::createGroup()&lt;br&gt;std::async(std::launch::async) n threads" style="shape=document;whiteSpace=wrap;html=1;boundedLbl=1;fillColor=#dae8fc;strokeColor=#6c8ebf;" parent="1" vertex="1">
          <mxGeometry x="4159.38" y="1580" width="280" height="100" as="geometry" />
        </mxCell>
        <mxCell id="OWdNk56Qyckdl0vmcLq8-430" value="mQueryTask.getLoginResponseMsg()" style="shape=document;whiteSpace=wrap;html=1;boundedLbl=1;fillColor=#dae8fc;strokeColor=#6c8ebf;" parent="1" vertex="1">
          <mxGeometry x="4159.38" y="1720" width="280" height="40" as="geometry" />
        </mxCell>
        <mxCell id="OWdNk56Qyckdl0vmcLq8-431" value="mQueryTask.getLoginCharacterResponseMsg()" style="shape=document;whiteSpace=wrap;html=1;boundedLbl=1;fillColor=#dae8fc;strokeColor=#6c8ebf;" parent="1" vertex="1">
          <mxGeometry x="4159.38" y="1780" width="280" height="40" as="geometry" />
        </mxCell>
        <mxCell id="OWdNk56Qyckdl0vmcLq8-432" value="mQueryTask.getGameResponseMsg()" style="shape=document;whiteSpace=wrap;html=1;boundedLbl=1;fillColor=#dae8fc;strokeColor=#6c8ebf;" parent="1" vertex="1">
          <mxGeometry x="4159.38" y="1840" width="280" height="40" as="geometry" />
        </mxCell>
        <mxCell id="OWdNk56Qyckdl0vmcLq8-433" value="mQueryTask.getGameCharacterResponseMsg()" style="shape=document;whiteSpace=wrap;html=1;boundedLbl=1;fillColor=#dae8fc;strokeColor=#6c8ebf;" parent="1" vertex="1">
          <mxGeometry x="4159.38" y="1900" width="280" height="40" as="geometry" />
        </mxCell>
        <mxCell id="OWdNk56Qyckdl0vmcLq8-434" value="mQueryTask.TODOMoreResponseMsg()" style="shape=document;whiteSpace=wrap;html=1;boundedLbl=1;fillColor=#dae8fc;strokeColor=#6c8ebf;" parent="1" vertex="1">
          <mxGeometry x="4159.38" y="1960" width="280" height="40" as="geometry" />
        </mxCell>
        <mxCell id="OWdNk56Qyckdl0vmcLq8-435" style="edgeStyle=orthogonalEdgeStyle;rounded=0;orthogonalLoop=1;jettySize=auto;html=1;exitX=1;exitY=0.5;exitDx=0;exitDy=0;entryX=0;entryY=0.5;entryDx=0;entryDy=0;fillColor=#dae8fc;strokeColor=#6c8ebf;" parent="1" source="OWdNk56Qyckdl0vmcLq8-388" target="OWdNk56Qyckdl0vmcLq8-429" edge="1">
          <mxGeometry relative="1" as="geometry" />
        </mxCell>
        <mxCell id="OWdNk56Qyckdl0vmcLq8-436" style="edgeStyle=orthogonalEdgeStyle;rounded=0;orthogonalLoop=1;jettySize=auto;html=1;exitX=1;exitY=0.5;exitDx=0;exitDy=0;entryX=0;entryY=0.5;entryDx=0;entryDy=0;fillColor=#dae8fc;strokeColor=#6c8ebf;" parent="1" source="OWdNk56Qyckdl0vmcLq8-389" target="OWdNk56Qyckdl0vmcLq8-430" edge="1">
          <mxGeometry relative="1" as="geometry" />
        </mxCell>
        <mxCell id="OWdNk56Qyckdl0vmcLq8-437" style="edgeStyle=orthogonalEdgeStyle;rounded=0;orthogonalLoop=1;jettySize=auto;html=1;exitX=1;exitY=0.5;exitDx=0;exitDy=0;entryX=0;entryY=0.5;entryDx=0;entryDy=0;fillColor=#dae8fc;strokeColor=#6c8ebf;" parent="1" source="OWdNk56Qyckdl0vmcLq8-390" target="OWdNk56Qyckdl0vmcLq8-431" edge="1">
          <mxGeometry relative="1" as="geometry" />
        </mxCell>
        <mxCell id="OWdNk56Qyckdl0vmcLq8-438" style="edgeStyle=orthogonalEdgeStyle;rounded=0;orthogonalLoop=1;jettySize=auto;html=1;exitX=1;exitY=0.5;exitDx=0;exitDy=0;fillColor=#dae8fc;strokeColor=#6c8ebf;" parent="1" source="OWdNk56Qyckdl0vmcLq8-391" target="OWdNk56Qyckdl0vmcLq8-432" edge="1">
          <mxGeometry relative="1" as="geometry" />
        </mxCell>
        <mxCell id="OWdNk56Qyckdl0vmcLq8-439" style="edgeStyle=orthogonalEdgeStyle;rounded=0;orthogonalLoop=1;jettySize=auto;html=1;exitX=1;exitY=0.5;exitDx=0;exitDy=0;entryX=0;entryY=0.5;entryDx=0;entryDy=0;fillColor=#dae8fc;strokeColor=#6c8ebf;" parent="1" source="OWdNk56Qyckdl0vmcLq8-392" target="OWdNk56Qyckdl0vmcLq8-433" edge="1">
          <mxGeometry relative="1" as="geometry" />
        </mxCell>
        <mxCell id="OWdNk56Qyckdl0vmcLq8-440" style="edgeStyle=orthogonalEdgeStyle;rounded=0;orthogonalLoop=1;jettySize=auto;html=1;exitX=1;exitY=0.5;exitDx=0;exitDy=0;entryX=0;entryY=0.5;entryDx=0;entryDy=0;fillColor=#dae8fc;strokeColor=#6c8ebf;" parent="1" source="OWdNk56Qyckdl0vmcLq8-393" target="OWdNk56Qyckdl0vmcLq8-434" edge="1">
          <mxGeometry relative="1" as="geometry" />
        </mxCell>
        <mxCell id="OWdNk56Qyckdl0vmcLq8-441" value="QueryTask" style="swimlane;whiteSpace=wrap;html=1;startSize=40;fillColor=#f8cecc;strokeColor=#b85450;" parent="1" vertex="1">
          <mxGeometry x="4080" y="2520" width="240" height="520" as="geometry" />
        </mxCell>
        <mxCell id="OWdNk56Qyckdl0vmcLq8-442" value="getLoginResponseMsg()" style="rounded=0;whiteSpace=wrap;html=1;" parent="OWdNk56Qyckdl0vmcLq8-441" vertex="1">
          <mxGeometry x="40" y="80" width="160" height="40" as="geometry" />
        </mxCell>
        <mxCell id="OWdNk56Qyckdl0vmcLq8-443" value="getLoginCharacterResponseMsg()" style="rounded=0;whiteSpace=wrap;html=1;" parent="OWdNk56Qyckdl0vmcLq8-441" vertex="1">
          <mxGeometry x="20" y="140" width="200" height="40" as="geometry" />
        </mxCell>
        <mxCell id="OWdNk56Qyckdl0vmcLq8-444" value="getGameResponseMsg()" style="rounded=0;whiteSpace=wrap;html=1;" parent="OWdNk56Qyckdl0vmcLq8-441" vertex="1">
          <mxGeometry x="40" y="200" width="160" height="40" as="geometry" />
        </mxCell>
        <mxCell id="OWdNk56Qyckdl0vmcLq8-445" value="getGameCharacterResponseMsg()" style="rounded=0;whiteSpace=wrap;html=1;" parent="OWdNk56Qyckdl0vmcLq8-441" vertex="1">
          <mxGeometry x="20" y="260" width="200" height="40" as="geometry" />
        </mxCell>
        <mxCell id="OWdNk56Qyckdl0vmcLq8-446" value="getLowLoadService()" style="rounded=0;whiteSpace=wrap;html=1;" parent="OWdNk56Qyckdl0vmcLq8-441" vertex="1">
          <mxGeometry x="40" y="320" width="160" height="40" as="geometry" />
        </mxCell>
        <mxCell id="OWdNk56Qyckdl0vmcLq8-447" value="getLowDS()" style="rounded=0;whiteSpace=wrap;html=1;" parent="OWdNk56Qyckdl0vmcLq8-441" vertex="1">
          <mxGeometry x="40" y="380" width="160" height="40" as="geometry" />
        </mxCell>
        <mxCell id="AzPcDkXragb4i7An9SMx-1" value="TODOMore()" style="rounded=0;whiteSpace=wrap;html=1;" parent="OWdNk56Qyckdl0vmcLq8-441" vertex="1">
          <mxGeometry x="40" y="440" width="160" height="40" as="geometry" />
        </mxCell>
        <mxCell id="OWdNk56Qyckdl0vmcLq8-457" style="edgeStyle=orthogonalEdgeStyle;rounded=0;orthogonalLoop=1;jettySize=auto;html=1;exitX=1;exitY=0.5;exitDx=0;exitDy=0;entryX=0.5;entryY=0;entryDx=0;entryDy=0;fillColor=#f8cecc;strokeColor=#b85450;" parent="1" source="OWdNk56Qyckdl0vmcLq8-400" target="OWdNk56Qyckdl0vmcLq8-441" edge="1">
          <mxGeometry relative="1" as="geometry" />
        </mxCell>
        <mxCell id="OWdNk56Qyckdl0vmcLq8-458" value="Database" style="swimlane;whiteSpace=wrap;html=1;startSize=40;fillColor=#f8cecc;strokeColor=#b85450;" parent="1" vertex="1">
          <mxGeometry x="3600" y="1880" width="160" height="80" as="geometry" />
        </mxCell>
        <mxCell id="OWdNk56Qyckdl0vmcLq8-465" value="RCache" style="swimlane;whiteSpace=wrap;html=1;startSize=40;fillColor=#f8cecc;strokeColor=#b85450;" parent="1" vertex="1">
          <mxGeometry x="3400" y="1880" width="160" height="80" as="geometry" />
        </mxCell>
        <mxCell id="OWdNk56Qyckdl0vmcLq8-468" style="edgeStyle=orthogonalEdgeStyle;rounded=0;orthogonalLoop=1;jettySize=auto;html=1;exitX=0;exitY=0.5;exitDx=0;exitDy=0;entryX=0.5;entryY=1;entryDx=0;entryDy=0;fillColor=#f8cecc;strokeColor=#b85450;" parent="1" source="OWdNk56Qyckdl0vmcLq8-396" target="OWdNk56Qyckdl0vmcLq8-465" edge="1">
          <mxGeometry relative="1" as="geometry" />
        </mxCell>
        <mxCell id="OWdNk56Qyckdl0vmcLq8-469" style="edgeStyle=orthogonalEdgeStyle;rounded=0;orthogonalLoop=1;jettySize=auto;html=1;exitX=0;exitY=0.5;exitDx=0;exitDy=0;entryX=0.5;entryY=1;entryDx=0;entryDy=0;fillColor=#f8cecc;strokeColor=#b85450;" parent="1" source="OWdNk56Qyckdl0vmcLq8-397" target="OWdNk56Qyckdl0vmcLq8-458" edge="1">
          <mxGeometry relative="1" as="geometry" />
        </mxCell>
        <mxCell id="OWdNk56Qyckdl0vmcLq8-470" value="" style="shape=curlyBracket;whiteSpace=wrap;html=1;rounded=1;labelPosition=left;verticalLabelPosition=middle;align=right;verticalAlign=middle;rotation=-90;fillColor=#f8cecc;strokeColor=#b85450;" parent="1" vertex="1">
          <mxGeometry x="3570" y="1900" width="20" height="160" as="geometry" />
        </mxCell>
        <mxCell id="OWdNk56Qyckdl0vmcLq8-471" style="edgeStyle=orthogonalEdgeStyle;rounded=0;orthogonalLoop=1;jettySize=auto;html=1;exitX=0;exitY=0.5;exitDx=0;exitDy=0;entryX=0.1;entryY=0.5;entryDx=0;entryDy=0;entryPerimeter=0;fillColor=#f8cecc;strokeColor=#b85450;" parent="1" source="OWdNk56Qyckdl0vmcLq8-441" target="OWdNk56Qyckdl0vmcLq8-470" edge="1">
          <mxGeometry relative="1" as="geometry" />
        </mxCell>
        <mxCell id="OWdNk56Qyckdl0vmcLq8-472" value="" style="shape=waypoint;sketch=0;size=6;pointerEvents=1;points=[];fillColor=none;resizable=0;rotatable=0;perimeter=centerPerimeter;snapToPoint=1;" parent="1" vertex="1">
          <mxGeometry x="2320" y="1830" width="20" height="20" as="geometry" />
        </mxCell>
        <mxCell id="OWdNk56Qyckdl0vmcLq8-473" value="" style="shape=waypoint;sketch=0;size=6;pointerEvents=1;points=[];fillColor=none;resizable=0;rotatable=0;perimeter=centerPerimeter;snapToPoint=1;" parent="1" vertex="1">
          <mxGeometry x="2340" y="1830" width="20" height="20" as="geometry" />
        </mxCell>
        <mxCell id="OWdNk56Qyckdl0vmcLq8-474" value="" style="shape=waypoint;sketch=0;size=6;pointerEvents=1;points=[];fillColor=none;resizable=0;rotatable=0;perimeter=centerPerimeter;snapToPoint=1;" parent="1" vertex="1">
          <mxGeometry x="2360" y="1830" width="20" height="20" as="geometry" />
        </mxCell>
        <mxCell id="BEcbsJx2-mrvWG48KEEz-1" value="Unreal Engine" style="rounded=0;whiteSpace=wrap;html=1;" parent="1" vertex="1">
          <mxGeometry x="1600" y="1760" width="120" height="80" as="geometry" />
        </mxCell>
        <mxCell id="BEcbsJx2-mrvWG48KEEz-2" value="" style="rounded=0;whiteSpace=wrap;html=1;" parent="1" vertex="1">
          <mxGeometry x="1720" y="1760" width="180" height="80" as="geometry" />
        </mxCell>
        <mxCell id="BEcbsJx2-mrvWG48KEEz-3" value="Special Level DS connection in GameMode" style="rounded=0;whiteSpace=wrap;html=1;fillColor=#e1d5e7;strokeColor=#9673a6;" parent="1" vertex="1">
          <mxGeometry x="1735" y="1780" width="150" height="40" as="geometry" />
        </mxCell>
        <mxCell id="BEcbsJx2-mrvWG48KEEz-5" value="" style="rounded=0;whiteSpace=wrap;html=1;" parent="1" vertex="1">
          <mxGeometry x="1460" y="1760" width="140" height="80" as="geometry" />
        </mxCell>
        <mxCell id="BEcbsJx2-mrvWG48KEEz-6" value="Client connection in GameInstance" style="rounded=0;whiteSpace=wrap;html=1;fillColor=#d5e8d4;strokeColor=#82b366;" parent="1" vertex="1">
          <mxGeometry x="1470" y="1780" width="120" height="40" as="geometry" />
        </mxCell>
        <mxCell id="oroKq6XAzSo-qo-6zVX0-1" value="ServiceRegistry" style="swimlane;whiteSpace=wrap;html=1;startSize=40;fillColor=#0050ef;fontColor=#ffffff;strokeColor=#001DBC;" parent="1" vertex="1">
          <mxGeometry x="1760" y="2320" width="240" height="280" as="geometry" />
        </mxCell>
        <mxCell id="oroKq6XAzSo-qo-6zVX0-2" value="run()" style="rounded=0;whiteSpace=wrap;html=1;" parent="oroKq6XAzSo-qo-6zVX0-1" vertex="1">
          <mxGeometry x="40" y="80" width="160" height="40" as="geometry" />
        </mxCell>
        <mxCell id="oroKq6XAzSo-qo-6zVX0-3" value="mServiceKeys" style="rounded=1;whiteSpace=wrap;html=1;arcSize=46;" parent="oroKq6XAzSo-qo-6zVX0-1" vertex="1">
          <mxGeometry x="40" y="200" width="160" height="40" as="geometry" />
        </mxCell>
        <mxCell id="oroKq6XAzSo-qo-6zVX0-11" value="mRedis" style="rounded=1;whiteSpace=wrap;html=1;arcSize=46;" parent="oroKq6XAzSo-qo-6zVX0-1" vertex="1">
          <mxGeometry x="40" y="140" width="160" height="40" as="geometry" />
        </mxCell>
        <mxCell id="oroKq6XAzSo-qo-6zVX0-4" value="" style="rounded=1;whiteSpace=wrap;html=1;" parent="1" vertex="1">
          <mxGeometry x="1480" y="2680" width="320" height="80" as="geometry" />
        </mxCell>
        <mxCell id="oroKq6XAzSo-qo-6zVX0-7" style="edgeStyle=orthogonalEdgeStyle;rounded=0;orthogonalLoop=1;jettySize=auto;html=1;exitX=1;exitY=0.5;exitDx=0;exitDy=0;entryX=0;entryY=0.5;entryDx=0;entryDy=0;" parent="1" source="oroKq6XAzSo-qo-6zVX0-5" target="oroKq6XAzSo-qo-6zVX0-6" edge="1">
          <mxGeometry relative="1" as="geometry" />
        </mxCell>
        <mxCell id="oroKq6XAzSo-qo-6zVX0-5" value="service key" style="rounded=0;whiteSpace=wrap;html=1;" parent="1" vertex="1">
          <mxGeometry x="1500" y="2700" width="100" height="40" as="geometry" />
        </mxCell>
        <mxCell id="oroKq6XAzSo-qo-6zVX0-6" value="number of&amp;nbsp; miss heartbeat" style="rounded=0;whiteSpace=wrap;html=1;" parent="1" vertex="1">
          <mxGeometry x="1620" y="2700" width="160" height="40" as="geometry" />
        </mxCell>
        <mxCell id="oroKq6XAzSo-qo-6zVX0-10" style="edgeStyle=orthogonalEdgeStyle;rounded=0;orthogonalLoop=1;jettySize=auto;html=1;exitX=0;exitY=0.5;exitDx=0;exitDy=0;entryX=0.5;entryY=0;entryDx=0;entryDy=0;" parent="1" source="oroKq6XAzSo-qo-6zVX0-3" target="oroKq6XAzSo-qo-6zVX0-4" edge="1">
          <mxGeometry relative="1" as="geometry" />
        </mxCell>
        <mxCell id="oroKq6XAzSo-qo-6zVX0-12" value="check whether any new service is actively registered, or some service&amp;nbsp;has lost heartbeat for n times&amp;nbsp;in loop&lt;br&gt;if so, mRedis.publish(some message about service&#39;s register or lost)&lt;br&gt;mRedis.publish(notify services, that it&#39;s time to send heartbeat with info(like the service&#39;s current load))" style="shape=document;whiteSpace=wrap;html=1;boundedLbl=1;fillColor=#dae8fc;strokeColor=#6c8ebf;" parent="1" vertex="1">
          <mxGeometry x="2080" y="2360" width="600" height="100" as="geometry" />
        </mxCell>
        <mxCell id="oroKq6XAzSo-qo-6zVX0-13" style="edgeStyle=orthogonalEdgeStyle;rounded=0;orthogonalLoop=1;jettySize=auto;html=1;exitX=1;exitY=0.5;exitDx=0;exitDy=0;entryX=0;entryY=0.5;entryDx=0;entryDy=0;fillColor=#dae8fc;strokeColor=#6c8ebf;" parent="1" source="oroKq6XAzSo-qo-6zVX0-2" target="oroKq6XAzSo-qo-6zVX0-12" edge="1">
          <mxGeometry relative="1" as="geometry" />
        </mxCell>
        <mxCell id="oroKq6XAzSo-qo-6zVX0-17" value="" style="endArrow=none;dashed=1;html=1;strokeWidth=4;rounded=0;endSize=6;dashPattern=8 8;jumpStyle=none;" parent="1" edge="1">
          <mxGeometry width="50" height="50" relative="1" as="geometry">
            <mxPoint x="3360" y="2240" as="sourcePoint" />
            <mxPoint x="1560" y="2240" as="targetPoint" />
          </mxGeometry>
        </mxCell>
        <mxCell id="oroKq6XAzSo-qo-6zVX0-19" value="" style="endArrow=none;dashed=1;html=1;strokeWidth=4;rounded=0;endSize=6;dashPattern=8 8;jumpStyle=none;" parent="1" edge="1">
          <mxGeometry width="50" height="50" relative="1" as="geometry">
            <mxPoint x="3359.47" y="2240" as="sourcePoint" />
            <mxPoint x="3359" y="1080" as="targetPoint" />
          </mxGeometry>
        </mxCell>
        <mxCell id="OWdNk56Qyckdl0vmcLq8-1" value="DBServer" style="rounded=0;whiteSpace=wrap;html=1;fillColor=#0050ef;fontColor=#ffffff;strokeColor=#001DBC;" parent="1" vertex="1">
          <mxGeometry x="3160" y="1120" width="160" height="80" as="geometry" />
        </mxCell>
        <mxCell id="oroKq6XAzSo-qo-6zVX0-20" value="" style="endArrow=none;dashed=1;html=1;strokeWidth=4;rounded=0;endSize=6;dashPattern=8 8;jumpStyle=none;" parent="1" edge="1">
          <mxGeometry width="50" height="50" relative="1" as="geometry">
            <mxPoint x="3360" y="1077.84" as="sourcePoint" />
            <mxPoint x="1560" y="1077.84" as="targetPoint" />
          </mxGeometry>
        </mxCell>
      </root>
    </mxGraphModel>
  </diagram>
</mxfile>
